<?xml version="1.0" encoding="utf-8"?>
<!-- Generator: Adobe Illustrator 23.0.3, SVG Export Plug-In . SVG Version: 6.00 Build 0)  -->
<svg version="1.1" id="Capa_2" xmlns="http://www.w3.org/2000/svg" xmlns:xlink="http://www.w3.org/1999/xlink" x="0px" y="0px"
	 viewBox="0 0 1366 768" style="enable-background:new 0 0 1366 768;" xml:space="preserve">
<style type="text/css">
	.st0{opacity:7.000000e-02;}
	.st1{fill:#E29530;}
	.st2{fill:#F3A734;}
	.st3{opacity:0.56;fill:#FFFFFF;}
</style>
<g class="st0">
	<path d="M-0.8,7L22,7.1L1357,12v30.3c-2.2,6.5-5.5,12.5-9.8,17.7c-0.2,0.2-0.4,0.5-0.6,0.7c0,0,0,0,0,0
		c-5.8,6.9-13.2,12.4-21.7,15.9c-6.8,2.8-12.2,4.4-20,4.4h-1.1c-0.6,0-1.2-0.1-1.7-0.2c-4.5-1.2-9.3-1.8-14.2-1.8h0
		c-13.9,0-26.7,5-36.6,13.3c-3.7,3.1-6.9,6.6-9.7,10.5c-1.4,2-2.8,4.1-3.9,6.3c0,0,0,0,0,0c-1.8,3.3-3.9,6.5-6.2,9.5c0,0,0,0,0,0
		c0,0,0,0,0,0c-2.3,2.9-5,5.5-7.9,7.8c-9.6,7.3-21.5,11.6-34.5,11.6c-14,0-26.8,5-36.7,13.4c-4.8,4-8.8,8.7-12.1,14.1
		c-0.5,0.8-1,1.7-1.4,2.5c-4.1,7.9-5.6,17-5,26c0.1,1.4,0.2,2.7,0.2,4.1c0,3.1-0.2,6.1-0.7,9c-1.6,10.1-5.9,19.3-12.1,26.9
		c-0.2,0.2-0.4,0.5-0.6,0.7c-10.5,12.4-26.1,20.3-43.6,20.3c-19.5,0-36.8-9.8-47-24.8c-2.6-3.8-4.7-7.8-6.3-12.1
		c-5.1-13.6-15.2-24.8-28.7-30.1c-2.5-1-5-1.8-7.6-2.4c-5.5-1.3-11.2-1.3-16.8-0.3c-3.1,0.5-6.2,0.8-9.5,0.8c-0.6,0-1.3,0-1.9,0
		c-23.6-0.8-43.6-15.9-51.5-37c-0.2-0.6-0.4-1.2-0.6-1.8c-0.5-2.5-1.1-5-1.9-7.4c-4.3-12.7-12.9-23.3-24-30.3
		c-8.7-5.4-19-8.5-30-8.5c-1.5,0-3,0.1-4.5,0.2c-1.5-0.1-3-0.2-4.5-0.2c-14,0-26.8,5-36.7,13.4c-5.5,4.6-10.1,10.3-13.6,16.7
		c-0.6,1.1-1.1,2.2-1.6,3.2c-0.4,0.8-0.6,1.6-0.7,2.5c-0.6,4.2-1.6,8.3-3.1,12.2l-1,2.5c-2.1,4.9-4.8,9.4-8.1,13.4
		c-0.2,0.2-0.4,0.5-0.6,0.7l0,0C766.2,178.1,750.5,186,733,186c-24.4,0-45.3-15.4-53.4-37c-2.3-6.2-3.6-13-3.6-20
		c0-31.5-25.5-57-57-57c-4.2,0-8.2-0.5-12.1-1.3c-0.6-0.1-1.2-0.3-1.7-0.4c-3.9-0.8-8-1.3-12.1-1.3c-13.9,0-26.7,5-36.6,13.3
		c-1.7,1.4-3.3,2.9-4.8,4.5c-0.7,0.8-1.5,1.6-2.1,2.4c-0.6,0.7-1.2,1.4-1.7,2.2c-0.4,0.5-0.8,1.1-1.2,1.7c0,0,0,0,0,0
		C536,104.1,521.3,111,505,111c-16.7,0-31.7-7.2-42.1-18.6v0l0,0c0,0,0,0-0.1-0.1c-0.3-0.4-0.7-0.8-1-1.2c-0.7-0.8-1.3-1.6-2-2.4
		c-0.5-0.6-0.9-1.2-1.4-1.9c-0.4-0.6-0.9-1.3-1.3-1.9c-0.1-0.1-0.2-0.3-0.3-0.4c-0.3-0.5-0.6-0.9-0.9-1.4c-0.3-0.5-0.5-1-0.8-1.4
		c0,0,0,0,0,0C444.7,70.2,429.7,63,413,63c-6.2,0-12.2,1-17.8,2.8c-0.6,0.2-1.2,0.2-1.8,0.1c-3.4-0.6-6.9-1-10.4-1
		c-13.9,0-26.7,5-36.6,13.3c-5.5,4.7-10.2,10.4-13.7,16.8c-0.4,0.7-0.7,1.4-1.1,2.1c-0.9,3-2,5.8-3.3,8.6c-1.9,4-4.3,7.7-7.1,11.1
		c-0.2,0.3-0.4,0.5-0.7,0.8C310.2,130.1,294.5,138,277,138c-26.8,0-49.2-18.5-55.3-43.4c0,0,0,0,0,0s0,0,0,0
		c-0.3-2.5-0.7-4.9-1.3-7.2v0C214.2,62.5,191.8,44,165,44c-0.7,0-1.3,0-2,0c0,0,0,0,0,0c-0.7,0-1.3,0-2,0c-13.9,0-26.7,5-36.6,13.3
		c-5.5,4.6-10.2,10.3-13.6,16.7c-1.3,2.5-2.5,5.1-3.4,7.7c-1.2,3.3-2.1,6.8-2.6,10.4c-2.2,6.1-5.4,11.8-9.4,16.7
		c-0.2,0.2-0.4,0.5-0.6,0.7c-10.7,12.7-26.8,20.7-44.9,20.3c-10.1-0.2-19.6-3.1-27.8-8c-10.8-6.4-19.3-16.4-24-28.1V51.6
		c0.7-3.4,1-7,1-10.6c0-3.6-0.3-7.2-1-10.7V7H-0.8z M461.2,89.5c-0.6-0.9-1.2-1.8-1.8-2.7C460,87.7,460.6,88.6,461.2,89.5z"/>
	<circle cx="1077" cy="323" r="57"/>
</g>
<g>
	<path class="st1" d="M2.2,2L25,2.1L1360,7v30.3c-2.2,6.5-5.5,12.5-9.8,17.7c-0.2,0.2-0.4,0.5-0.6,0.7c0,0,0,0,0,0
		c-5.8,6.9-13.2,12.4-21.7,15.9c-6.8,2.8-12.2,4.4-20,4.4h-1.1c-0.6,0-1.2-0.1-1.7-0.2c-4.5-1.2-9.3-1.8-14.2-1.8h0
		c-13.9,0-26.7,5-36.6,13.3c-3.7,3.1-6.9,6.6-9.7,10.5c-1.4,2-2.8,4.1-3.9,6.3c0,0,0,0,0,0c-1.8,3.3-3.9,6.5-6.2,9.5c0,0,0,0,0,0
		c0,0,0,0,0,0c-2.3,2.9-5,5.5-7.9,7.8c-9.6,7.3-21.5,11.6-34.5,11.6c-14,0-26.8,5-36.7,13.4c-4.8,4-8.8,8.7-12.1,14.1
		c-0.5,0.8-1,1.7-1.4,2.5c-4.1,7.9-5.6,17-5,26c0.1,1.4,0.2,2.7,0.2,4.1c0,3.1-0.2,6.1-0.7,9c-1.6,10.1-5.9,19.3-12.1,26.9
		c-0.2,0.2-0.4,0.5-0.6,0.7c-10.5,12.4-26.1,20.3-43.6,20.3c-19.5,0-36.8-9.8-47-24.8c-2.6-3.8-4.7-7.8-6.3-12.1
		c-5.1-13.6-15.2-24.8-28.7-30.1c-2.5-1-5-1.8-7.6-2.4c-5.5-1.3-11.2-1.3-16.8-0.3c-3.1,0.5-6.2,0.8-9.5,0.8c-0.6,0-1.3,0-1.9,0
		c-23.6-0.8-43.6-15.9-51.5-37c-0.2-0.6-0.4-1.2-0.6-1.8c-0.5-2.5-1.1-5-1.9-7.4c-4.3-12.7-12.9-23.3-24-30.3
		c-8.7-5.4-19-8.5-30-8.5c-1.5,0-3,0.1-4.5,0.2c-1.5-0.1-3-0.2-4.5-0.2c-14,0-26.8,5-36.7,13.4c-5.5,4.6-10.1,10.3-13.6,16.7
		c-0.6,1.1-1.1,2.2-1.6,3.2c-0.4,0.8-0.6,1.6-0.7,2.5c-0.6,4.2-1.6,8.3-3.1,12.2l-1,2.5c-2.1,4.9-4.8,9.4-8.1,13.4
		c-0.2,0.2-0.4,0.5-0.6,0.7l0,0C769.2,173.1,753.5,181,736,181c-24.4,0-45.3-15.4-53.4-37c-2.3-6.2-3.6-13-3.6-20
		c0-31.5-25.5-57-57-57c-4.2,0-8.2-0.5-12.1-1.3c-0.6-0.1-1.2-0.3-1.7-0.4c-3.9-0.8-8-1.3-12.1-1.3c-13.9,0-26.7,5-36.6,13.3
		c-1.7,1.4-3.3,2.9-4.8,4.5c-0.7,0.8-1.5,1.6-2.1,2.4c-0.6,0.7-1.2,1.4-1.7,2.2c-0.4,0.5-0.8,1.1-1.2,1.7c0,0,0,0,0,0
		C539,99.1,524.3,106,508,106c-16.7,0-31.7-7.2-42.1-18.6v0l0,0c0,0,0,0-0.1-0.1c-0.3-0.4-0.7-0.8-1-1.2c-0.7-0.8-1.3-1.6-2-2.4
		c-0.5-0.6-0.9-1.2-1.4-1.9c-0.4-0.6-0.9-1.3-1.3-1.9c-0.1-0.1-0.2-0.3-0.3-0.4c-0.3-0.5-0.6-0.9-0.9-1.4c-0.3-0.5-0.5-1-0.8-1.4
		c0,0,0,0,0,0C447.7,65.2,432.7,58,416,58c-6.2,0-12.2,1-17.8,2.8c-0.6,0.2-1.2,0.2-1.8,0.1c-3.4-0.6-6.9-1-10.4-1
		c-13.9,0-26.7,5-36.6,13.3c-5.5,4.7-10.2,10.4-13.7,16.8c-0.4,0.7-0.7,1.4-1.1,2.1c-0.9,3-2,5.8-3.3,8.6c-1.9,4-4.3,7.7-7.1,11.1
		c-0.2,0.3-0.4,0.5-0.7,0.8C313.2,125.1,297.5,133,280,133c-26.8,0-49.2-18.5-55.3-43.4c0,0,0,0,0,0s0,0,0,0
		c-0.3-2.5-0.7-4.9-1.3-7.2v0C217.2,57.5,194.8,39,168,39c-0.7,0-1.3,0-2,0c0,0,0,0,0,0c-0.7,0-1.3,0-2,0c-13.9,0-26.7,5-36.6,13.3
		c-5.5,4.6-10.2,10.3-13.6,16.7c-1.3,2.5-2.5,5.1-3.4,7.7c-1.2,3.3-2.1,6.8-2.6,10.4c-2.2,6.1-5.4,11.8-9.4,16.7
		c-0.2,0.2-0.4,0.5-0.6,0.7c-10.7,12.7-26.8,20.7-44.9,20.3c-10.1-0.2-19.6-3.1-27.8-8c-10.8-6.4-19.3-16.4-24-28.1V46.6
		c0.7-3.4,1-7,1-10.6c0-3.6-0.3-7.2-1-10.7V2H2.2z M464.2,84.5c-0.6-0.9-1.2-1.8-1.8-2.7C463,82.7,463.6,83.6,464.2,84.5z"/>
	<circle class="st1" cx="1080" cy="318" r="57"/>
</g>
<g>
	<path class="st2" d="M6.4,12C5.3,8.5,3.9,5.2,2.2,2C1.9,1.3,1.5,0.7,1.1,0H1367v30.3c-3.3,9.8-9.3,18.5-17,25.1
		c-0.1,0.1-0.2,0.2-0.4,0.3c0,0,0,0,0,0c-4.4,3.7-9.3,6.7-14.7,8.9c-6.8,2.8-12.2,4.4-20,4.4h-1.1c-0.6,0-1.2-0.1-1.7-0.2
		c-4.5-1.2-9.3-1.8-14.2-1.8h0c-17.5,0-33.2,7.9-43.6,20.3c-0.9,1.1-1.8,2.3-2.7,3.5c-1.4,1.9-2.6,3.9-3.7,5.9
		c-0.1,0.2-0.2,0.3-0.2,0.5c-3.4,6.3-7.7,12-13.3,16.5c0,0,0,0,0,0c-0.3,0.3-0.6,0.5-0.9,0.8c-9.6,7.3-21.5,11.6-34.5,11.6
		c-17.5,0-33.2,7.9-43.7,20.4c-1.9,2.2-3.6,4.6-5.1,7.1c-0.4,0.7-0.9,1.5-1.2,2.2c-4.2,8-5.8,17.2-5.2,26.3c0.1,1.4,0.2,2.7,0.2,4.1
		c0,3.1-0.2,6.1-0.7,9c-2.2,13.7-9.2,25.7-19.3,34.3c-0.1,0.1-0.3,0.2-0.4,0.3c-9.9,8.3-22.7,13.3-36.6,13.3
		c-19.5,0-36.8-9.8-47-24.8c-2.6-3.8-4.7-7.8-6.3-12.1c-5.1-13.6-15.2-24.8-28.7-30.1c-2.5-1-5-1.8-7.6-2.4
		c-5.5-1.3-11.2-1.3-16.8-0.3c-3.1,0.5-6.2,0.8-9.5,0.8c-0.6,0-1.3,0-1.9,0c-23.6-0.8-43.6-15.9-51.5-37c-0.2-0.6-0.4-1.2-0.6-1.8
		c-0.5-2.5-1.1-5-1.9-7.4c-4.3-12.7-12.9-23.3-24-30.3c-8.7-5.4-19-8.5-30-8.5c-1.5,0-3,0.1-4.5,0.2c-1.5-0.1-3-0.2-4.5-0.2
		c-17.5,0-33.2,7.9-43.7,20.4c-2.4,2.9-4.6,6-6.4,9.3v0c-0.6,1.2-1.2,2.4-1.8,3.6c-0.4,0.8-0.6,1.6-0.7,2.5
		c-0.6,4.2-1.6,8.3-3.1,12.2l-1,2.5c-3.5,8.1-8.8,15.2-15.3,20.8c-0.1,0.1-0.2,0.2-0.4,0.3l0,0C769.7,169,756.9,174,743,174
		c-24.4,0-45.3-15.4-53.4-37c-2.3-6.2-3.6-13-3.6-20c0-31.5-25.5-57-57-57c-4.2,0-8.2-0.5-12.1-1.3c-0.6-0.1-1.2-0.3-1.7-0.4
		c-3.9-0.8-8-1.3-12.1-1.3c-16.3,0-31,6.9-41.4,17.9c-0.7,0.8-1.5,1.6-2.1,2.4c0,0,0,0,0,0.1c-1,1.2-2,2.5-2.9,3.8c0,0,0,0,0,0
		c-1.8,1.9-3.7,3.7-5.8,5.3C540.9,94.3,528.5,99,515,99c-16.7,0-31.7-7.2-42.1-18.6v0l0,0c0,0,0,0-0.1-0.1c-0.3-0.4-0.7-0.8-1-1.2
		c-0.7-0.8-1.3-1.6-2-2.4c-0.5-0.6-0.9-1.2-1.4-1.9c-0.4-0.6-0.9-1.3-1.3-1.9c-0.1-0.1-0.2-0.3-0.3-0.4c-0.3-0.5-0.6-0.9-0.9-1.4
		c-0.3-0.5-0.5-1-0.8-1.4c0,0,0,0,0,0C454.7,58.2,439.7,51,423,51c-6.2,0-12.2,1-17.8,2.8c-0.6,0.2-1.2,0.2-1.8,0.1
		c-3.4-0.6-6.9-1-10.4-1c-17.5,0-33.2,7.9-43.6,20.3c-2.4,2.9-4.6,6-6.4,9.3c0,0,0,0,0,0c-0.5,0.8-0.9,1.7-1.3,2.6
		c-0.9,3-2,5.8-3.3,8.6c-3.5,7.1-8.4,13.5-14.3,18.6c0,0,0,0,0,0c-0.1,0.1-0.2,0.2-0.4,0.3C313.7,121,300.9,126,287,126
		c-26.8,0-49.2-18.5-55.3-43.4c0,0,0,0,0,0s0,0,0,0c-0.3-2.5-0.7-4.9-1.3-7.2v0C224.2,50.5,201.8,32,175,32c-0.7,0-1.3,0-2,0
		c0,0,0,0,0,0c-0.7,0-1.3,0-2,0c-17.5,0-33.2,7.9-43.6,20.3c-2.4,2.9-4.6,6-6.4,9.4c-1.4,2.6-2.6,5.3-3.6,8.1
		c-1.2,3.3-2.1,6.8-2.6,10.4c-3.4,9.4-9.2,17.7-16.6,24.1c-0.1,0.1-0.2,0.2-0.4,0.3c-10.2,8.6-23.4,13.6-37.9,13.3
		c-13.2-0.3-25.3-5.1-34.8-12.9C12,94.4,3.8,78.2,4,60.2c0-3.6,0.4-7.2,1.1-10.6c0.8-2.1,1.5-4.3,2.1-6.6c0.2-0.9,0.4-1.8,0.6-2.8
		C8.6,36.7,9,32.9,9,29c0-4.5-0.5-8.8-1.5-13C7.2,14.6,6.8,13.3,6.4,12z M471.2,77.5c-0.6-0.9-1.2-1.8-1.8-2.7
		C470,75.7,470.6,76.6,471.2,77.5z"/>
	<circle class="st2" cx="1087" cy="311" r="57"/>
</g>
<path class="st3" d="M1103.7,338.8c-9,9-20.9,13.3-32.6,12.9c15.7,6,34.1,2.6,46.7-10c17.2-17.2,17.2-45,0-62.2
	c-8.2-8.2-18.9-12.5-29.6-12.9c5.6,2.1,10.9,5.5,15.5,10C1120.8,293.7,1120.8,321.6,1103.7,338.8z"/>
<path class="st3" d="M1100.9,209.5c-6.7,6.7-15.6,9.9-24.3,9.6c11.7,4.4,25.4,1.9,34.9-7.5c12.8-12.8,12.8-33.6,0-46.4
	c-6.1-6.1-14.1-9.3-22.1-9.6c4.2,1.6,8.2,4.1,11.6,7.5C1113.8,175.9,1113.8,196.7,1100.9,209.5z"/>
<path class="st3" d="M754.9,149.5c-6.7,6.7-15.6,9.9-24.3,9.6c11.7,4.4,25.4,1.9,34.9-7.5c12.8-12.8,12.8-33.6,0-46.4
	c-6.1-6.1-14.1-9.3-22.1-9.6c4.2,1.6,8.2,4.1,11.6,7.5C767.8,115.9,767.8,136.7,754.9,149.5z"/>
<path class="st3" d="M305.9,97.5c-6.7,6.7-15.6,9.9-24.3,9.6c11.7,4.4,25.4,1.9,34.9-7.5c12.8-12.8,12.8-33.6,0-46.4
	c-6.1-6.1-14.1-9.3-22.1-9.6c4.2,1.6,8.2,4.1,11.6,7.5C318.8,63.9,318.8,84.7,305.9,97.5z"/>
</svg>
