<svg id="Capa_1" data-name="Capa 1" xmlns="http://www.w3.org/2000/svg" viewBox="0 0 1366 141"><defs><style>.cls-1{opacity:0.1;}.cls-2{fill:#cdd2d3;}.cls-3{fill:#fff;}</style></defs><title>fondo-nosotros5</title><path class="cls-1" d="M929.32,110.32A17.23,17.23,0,0,0,926,110a15.31,15.31,0,0,0-2,.13,17,17,0,1,0,5.36.19Zm-599-35A17.23,17.23,0,0,0,327,75a15.31,15.31,0,0,0-2,.13,17,17,0,1,0,5.36.19Zm1035.3-8.21a46.45,46.45,0,0,1-7.92,5q-.81.42-1.62.78h0a47.91,47.91,0,0,1-6.64,2.44c-1.07.32-2.13.58-3.22.82h0a48.44,48.44,0,0,0-27.85,37.31A48.34,48.34,0,0,1,1291.12,145H1366V66.81ZM18,145H1252.49c-1-.46-2.07-.95-3.08-1.48s-2-1.12-3-1.74a46.52,46.52,0,0,1-6.08-4.46c-.52-.58-1-1.15-1.61-1.71-.93-1-1.92-1.88-2.94-2.76a48.11,48.11,0,0,0-14-8.45c-.64-.25-1.28-.49-1.93-.7a48.23,48.23,0,0,0-22.5-2,47.1,47.1,0,0,0-11.77,3.28,48.6,48.6,0,0,1-7,.5,48.25,48.25,0,0,1-39-19.89,48.35,48.35,0,0,0-28.2-29.38c-.65-.25-1.3-.49-2-.71a47.62,47.62,0,0,0-6.86-1.78h0a48.37,48.37,0,0,0-14-.48h0a47.73,47.73,0,0,1-16.83-6.49,48,48,0,0,1-6.44-4.78c-.56-.49-1.1-1-1.63-1.52a47.73,47.73,0,0,1-6.42-7.62,48.36,48.36,0,0,0-14.45-8.8c-.88-.34-1.77-.65-2.67-.94a48.11,48.11,0,0,0-14.77-2.31,47,47,0,0,0-4.77.23,48.15,48.15,0,0,0-8.7,1.68c-.49,0-1,.09-1.46.12l-1,.06h0a48.45,48.45,0,0,0-14.08-2.09c-.76,0-1.51,0-2.26.05h0a48.19,48.19,0,0,0-5.82.63,48.92,48.92,0,0,0-7.47,1.89A48.4,48.4,0,0,0,962.2,53.76s0,0,0,0a47.79,47.79,0,0,1-8.39,11.84c-.56.59-1.16,1.19-1.77,1.76h0c-1.1,1-2.25,2-3.43,2.93a48.27,48.27,0,0,1-55,2.8s0,0,0,0a48.31,48.31,0,0,1-4.9-3.49c-1.07-.88-2.11-1.8-3.1-2.77a48.26,48.26,0,0,1-7.9-10h0a47.53,47.53,0,0,0-12.89-7.49h0q-1.8-.71-3.66-1.26a48.37,48.37,0,0,0-13.85-2,57.08,57.08,0,0,0-15,0c-3.09.38-6.16.47-9.1.92a23.37,23.37,0,0,0-2.52.49c-1.34.33-2.66.72-3.94,1.16A48.36,48.36,0,0,0,793.17,66v0a47.41,47.41,0,0,0-6.61,12.73h0a47.83,47.83,0,0,1-4.3,5.11A49.44,49.44,0,0,1,777,88.55a48.24,48.24,0,0,1-61.4-2c-.56-.49-1.11-1-1.64-1.52a48.69,48.69,0,0,1-5.43-6.22,16.78,16.78,0,0,0-3.18-3.23,47.72,47.72,0,0,0-12.28-7c-.87-.35-1.77-.66-2.67-1a48,48,0,0,0-14.76-2.31c-.7,0-1.38,0-2.07,0h0s0,0,0,0a47.79,47.79,0,0,1-15.1,3.11h0c-.69,0-1.36,0-2.06,0a48.08,48.08,0,0,1-24.07-6.41c-.48-.28-.95-.56-1.42-.86a47.44,47.44,0,0,1-8-6.28c-.85-.81-1.66-1.66-2.45-2.54a48.19,48.19,0,0,0-7.53-3.5q-1.75-.65-3.57-1.14a48.59,48.59,0,0,0-23.23-.68,68.39,68.39,0,0,0-7.52,2.12,51.83,51.83,0,0,0-8.37,3.61L570,53a48.35,48.35,0,0,0-28.89,26.9,47.25,47.25,0,0,1-3.28,11.79,48,48,0,0,1-9.71,14.7,46.94,46.94,0,0,1-5.25,4.71,48.23,48.23,0,0,1-76.65-27.91,48.45,48.45,0,0,0-24.36-20.93h0l-.38-.15-.94,0c-.73.05-1.46.06-2.2.06a48.22,48.22,0,0,1-17.09-3.12,47.84,47.84,0,0,1-8.39-4.16,48.28,48.28,0,0,1-18.72-21.6,48.08,48.08,0,0,0-21.94-17.16c-.71-.29-1.42-.54-2.14-.77-.37-.14-.74-.26-1.11-.37h-40.3l-1.29.42a48.38,48.38,0,0,0-27.76,24.42,48.11,48.11,0,0,1-12,21.49,48.3,48.3,0,0,1-34.75,14.79c-.66,0-1.31,0-2-.05A48.07,48.07,0,0,1,218.72,74c-.64,0-1.29,0-1.94,0a48.26,48.26,0,0,0-7.85.64,47.64,47.64,0,0,0-7.74,1.94,48.47,48.47,0,0,0-16.57,9.69,47.92,47.92,0,0,1-7.07,9.4h0c-.82.87-1.69,1.7-2.59,2.5s-1.72,1.5-2.63,2.19A48.24,48.24,0,0,1,119,104.16c-.56-.32-1.11-.65-1.66-1a47.84,47.84,0,0,1-8-6.28,47.26,47.26,0,0,1-6-6.91,47.4,47.4,0,0,0-4.76-8.43,48.37,48.37,0,0,0-22-17.19c-.63-.25-1.28-.49-1.93-.71a47.3,47.3,0,0,0-7.82-1.94,45.29,45.29,0,0,1-6.63.47,47.75,47.75,0,0,1-7.71-.62,48.13,48.13,0,0,1-17.76-6.65,48.34,48.34,0,0,1-8.06-6.29" transform="translate(0 -4)"/><path class="cls-2" d="M330.32,75.32a16.8,16.8,0,0,0-7.22-3.82h0A17.24,17.24,0,0,0,319,71a17,17,0,0,0-14.1,26.49h0a17,17,0,1,0,25.42-22.18Zm599,35a16.8,16.8,0,0,0-7.22-3.82h0A17.24,17.24,0,0,0,918,106a17,17,0,0,0-14.1,26.49h0a17,17,0,1,0,25.42-22.18Zm433-51.34a47.12,47.12,0,0,1-4.69,4.13,46.45,46.45,0,0,1-7.92,5q-.81.42-1.62.78h0a47.91,47.91,0,0,1-6.64,2.44c-1.07.32-2.13.58-3.22.82h0a48.44,48.44,0,0,0-27.85,37.31A48.26,48.26,0,0,1,1265.53,145H1366V54.82A47.06,47.06,0,0,1,1362.31,59ZM10,145H1262.08a47.9,47.9,0,0,1-15.7-3.22,49.44,49.44,0,0,1-5-2.26,48,48,0,0,1-9.11-6.2l-.61-.66a45.75,45.75,0,0,0-3.94-3.81,47.79,47.79,0,0,0-6-4.45q-1.47-.93-3-1.74a47.9,47.9,0,0,0-22.42-5.52,48.42,48.42,0,0,0-18.75,3.79,48.26,48.26,0,0,1-46-19.39,48.36,48.36,0,0,0-20.2-25.38c-1-.62-2-1.21-3.06-1.75a47.93,47.93,0,0,0-13.76-4.74h0a48.37,48.37,0,0,0-14-.48h0a47.52,47.52,0,0,1-8.83-2.49,48,48,0,0,1-14.44-8.78l-.52-.47a48.19,48.19,0,0,1-7.53-8.67,48.19,48.19,0,0,0-6.45-4.8q-1.62-1-3.33-1.89a48,48,0,0,0-22.11-5.36,47,47,0,0,0-4.77.23,48.15,48.15,0,0,0-8.7,1.68c-.49,0-1,.09-1.46.12l-1,.06h0a48.45,48.45,0,0,0-14.08-2.09c-.76,0-1.51,0-2.26.05h0a48.19,48.19,0,0,0-5.82.63,48.92,48.92,0,0,0-7.47,1.89A48.4,48.4,0,0,0,954.2,49.76s0,0,0,0a47.79,47.79,0,0,1-8.39,11.84c-.56.59-1.16,1.19-1.77,1.76h0c-1.1,1-2.25,2-3.43,2.93a48.16,48.16,0,0,1-29.53,10.09,47.86,47.86,0,0,1-17.51-3.29s0,0,0,0a48,48,0,0,1-12.9-7.49c-.68-.56-1.35-1.13-2-1.74a48.42,48.42,0,0,1-9-11h0a48.18,48.18,0,0,0-4.89-3.49h0a45.29,45.29,0,0,0-4.43-2.44,47.93,47.93,0,0,0-21.08-4.84,57.08,57.08,0,0,0-15,0c-3.09.38-6.16.47-9.1.92a23.37,23.37,0,0,0-2.52.49c-1.34.33-2.66.72-3.94,1.16A48.36,48.36,0,0,0,785.17,62v0a47.41,47.41,0,0,0-6.61,12.73h0a47.83,47.83,0,0,1-4.3,5.11A49.44,49.44,0,0,1,769,84.55a48.22,48.22,0,0,1-61.4-2l-.54-.49a48.86,48.86,0,0,1-6.53-7.25,16.78,16.78,0,0,0-3.18-3.23,46.73,46.73,0,0,0-4.28-3c-1.16-.73-2.34-1.4-3.56-2a48,48,0,0,0-21.87-5.24c-.7,0-1.38,0-2.07,0h0s0,0,0,0a47.79,47.79,0,0,1-15.1,3.11h0c-.69,0-1.36,0-2.06,0a48,48,0,0,1-17.49-3.27,47.28,47.28,0,0,1-6.58-3.14A47.92,47.92,0,0,1,616,52.11a41.48,41.48,0,0,1-3.12-3.1c-.17-.16-.32-.33-.47-.5a48.52,48.52,0,0,0-34.33-5.32,68.39,68.39,0,0,0-7.52,2.12,51.83,51.83,0,0,0-8.37,3.61L562,49a48.35,48.35,0,0,0-28.89,26.9,47.25,47.25,0,0,1-3.28,11.79,48,48,0,0,1-9.71,14.7,46.94,46.94,0,0,1-5.25,4.71,48.23,48.23,0,0,1-76.65-27.91,48.66,48.66,0,0,0-16.36-16.93h0c-1-.62-2-1.21-3.07-1.76a47,47,0,0,0-5.31-2.39c-1,.08-2.08.11-3.14.11a48.22,48.22,0,0,1-17.09-3.12l-.39-.16a47.9,47.9,0,0,1-14.95-9.25,48,48,0,0,1-7-7.92,48.39,48.39,0,0,1-4.76-8.43,48.07,48.07,0,0,0-13.94-13.16q-1.75-1.1-3.6-2A47.29,47.29,0,0,0,341,11h-40.3l-1.29.42a48.38,48.38,0,0,0-27.76,24.42,48.11,48.11,0,0,1-12,21.49,48.3,48.3,0,0,1-34.75,14.79c-.66,0-1.31,0-2-.05A48.07,48.07,0,0,1,210.72,70c-.64,0-1.29,0-1.94,0a48.26,48.26,0,0,0-7.85.64,47.64,47.64,0,0,0-7.74,1.94,48.47,48.47,0,0,0-16.57,9.69,47.92,47.92,0,0,1-7.07,9.4h0c-.82.87-1.69,1.7-2.59,2.5s-1.72,1.5-2.63,2.19a48.26,48.26,0,0,1-47,6.84,47.22,47.22,0,0,1-6.34-3,48,48,0,0,1-8.58-6.23h0a48.33,48.33,0,0,1-7-7.94,47.4,47.4,0,0,0-4.76-8.43,48.45,48.45,0,0,0-14-13.19c-1-.62-2-1.2-3-1.74a47.52,47.52,0,0,0-14.71-4.91,45.29,45.29,0,0,1-6.63.47,47.75,47.75,0,0,1-7.71-.62,48.31,48.31,0,0,1-9.76-2.65,48.07,48.07,0,0,1-14.93-9.24" transform="translate(0 -4)"/><path class="cls-3" d="M924,110.13a16.81,16.81,0,0,0-1.86-3.63h0a17,17,0,1,0-18.2,26h0a17.16,17.16,0,0,0,6.14.38l.17,0A17,17,0,0,0,924,110.13Zm-599-35a16.81,16.81,0,0,0-1.86-3.63h0a17,17,0,1,0-18.2,26h0a17.16,17.16,0,0,0,6.14.38l.17,0A17,17,0,0,0,325,75.13ZM1352.31,52a47.12,47.12,0,0,1-4.69,4.13,46.45,46.45,0,0,1-7.92,5q-.81.42-1.62.78h0a47.91,47.91,0,0,1-6.64,2.44c-1.07.32-2.13.58-3.22.82h0a48.44,48.44,0,0,0-27.85,37.31,48.18,48.18,0,0,1-68.66,30.21,2.44,2.44,0,0,1-.28-.14,48,48,0,0,1-9.11-6.2c-.81-.91-1.65-1.78-2.53-2.62-.36-.36-.73-.7-1.1-1l-.92-.81a48,48,0,0,0-31.5-11.71,48.42,48.42,0,0,0-18.75,3.79,48.21,48.21,0,0,1-46-19.39,48.37,48.37,0,0,0-6.62-12.74,47.22,47.22,0,0,0-5.54-6.35c-.36-.37-.73-.71-1.1-1a47.94,47.94,0,0,0-23.76-11.74h0a48.37,48.37,0,0,0-14-.48h0a45.67,45.67,0,0,1-6.9-1.79,46.23,46.23,0,0,1-6.89-2.95,48.54,48.54,0,0,1-9.48-6.53A49.14,49.14,0,0,1,1040,43c-.27-.38-.55-.77-.79-1.16l-.09-.1a48.09,48.09,0,0,0-31.89-12,47,47,0,0,0-4.77.23,48.15,48.15,0,0,0-8.7,1.68c-.49,0-1,.09-1.46.12l-1,.06h0a48.45,48.45,0,0,0-14.08-2.09c-.76,0-1.51,0-2.26.05h0a48.19,48.19,0,0,0-5.82.63,48.92,48.92,0,0,0-7.47,1.89A48.4,48.4,0,0,0,944.2,42.76a47.67,47.67,0,0,1-8.4,11.86c-.56.59-1.16,1.19-1.77,1.76h0c-1.1,1-2.25,2-3.43,2.93a48.28,48.28,0,0,1-45.05,7.53,46.43,46.43,0,0,1-6.9-3,47.41,47.41,0,0,1-8-5.26,48.26,48.26,0,0,1-9.57-10.5c-.28-.39-.53-.78-.77-1.18s-.45-.7-.66-1h0a48.08,48.08,0,0,0-28.94-10.76c-.87,0-1.74-.07-2.61-.17a59.55,59.55,0,0,0-13.87.15c-3.09.38-6.16.47-9.1.92a23.37,23.37,0,0,0-2.52.49c-1.34.33-2.66.72-3.94,1.16A48.36,48.36,0,0,0,775.17,55v0a47.41,47.41,0,0,0-6.61,12.73h0a47.83,47.83,0,0,1-4.3,5.11A49.44,49.44,0,0,1,759,77.55a48.34,48.34,0,0,1-45,7.53,47,47,0,0,1-6.9-3,48.31,48.31,0,0,1-9.46-6.51,49,49,0,0,1-7.07-7.74,1,1,0,0,0-.13-.16,11.22,11.22,0,0,0-.89-1.07,17.07,17.07,0,0,0-2.16-2,48.06,48.06,0,0,0-29.71-10.24c-.7,0-1.38,0-2.07,0h0s0,0,0,0a47.79,47.79,0,0,1-15.1,3.11h0c-.69,0-1.36,0-2.06,0a48,48,0,0,1-15.52-2.55A45.84,45.84,0,0,1,616,52.11c-.57-.29-1.13-.6-1.69-.92a46.6,46.6,0,0,1-5-3.32c-.92-.69-1.81-1.42-2.67-2.18a46.36,46.36,0,0,1-4.23-4.18,48.52,48.52,0,0,0-34.33-5.32,68.39,68.39,0,0,0-7.52,2.12,51.83,51.83,0,0,0-8.37,3.61L552,42a48.35,48.35,0,0,0-28.89,26.9,47.25,47.25,0,0,1-3.28,11.79,48,48,0,0,1-9.71,14.7,46.94,46.94,0,0,1-5.25,4.71,48.31,48.31,0,0,1-45,7.51,46.32,46.32,0,0,1-6.89-3A48.35,48.35,0,0,1,433.56,86a47.79,47.79,0,0,1-5.31-13.79,48.35,48.35,0,0,0-7.7-10c-.57-.57-1.15-1.13-1.75-1.66a48.22,48.22,0,0,0-11.13-7.58,16.6,16.6,0,0,0-7.29-1.7h0a48.2,48.2,0,0,1-15.55-2.57l-1.54-.55a47.56,47.56,0,0,1-5.34-2.41,48.31,48.31,0,0,1-17-14.92,48.12,48.12,0,0,1-4.16-7.13,15.84,15.84,0,0,0-1.63-2.71h0a41.25,41.25,0,0,0-5-5.51c-.48-.44-1-.86-1.46-1.27A44.25,44.25,0,0,0,320.28,4H291.93a7.62,7.62,0,0,0-2.55.42h0a48.29,48.29,0,0,0-13.43,7.11A48.28,48.28,0,0,0,260.12,33.6a47.82,47.82,0,0,1-1.94,4.53,48.29,48.29,0,0,1-8.57,12.2,48.3,48.3,0,0,1-34.75,14.79c-.66,0-1.31,0-2-.05a48.29,48.29,0,0,1-10.63-1.61,13,13,0,0,0-3.45-.49h-.05a48.26,48.26,0,0,0-7.85.64,47.64,47.64,0,0,0-7.74,1.94l-.19.06a41.56,41.56,0,0,0-19.55,14.44,48.73,48.73,0,0,1-3.9,4.59h0c-.82.87-1.69,1.7-2.59,2.5s-1.72,1.5-2.63,2.19a48.11,48.11,0,0,1-51.9,4.6h0c-.47-.24-.94-.5-1.4-.76A48.61,48.61,0,0,1,85.36,79a47.4,47.4,0,0,0-4.76-8.43,48.61,48.61,0,0,0-5.91-6.9c-.36-.35-.73-.7-1.11-1A48.42,48.42,0,0,0,59,53.51a37.31,37.31,0,0,0-15.11-2.36q-.84,0-1.68,0a47.75,47.75,0,0,1-7.71-.62,48.32,48.32,0,0,1-7.82-1.94,48.67,48.67,0,0,1-6.87-2.95c-.62-.33-1.24-.67-1.84-1a48.47,48.47,0,0,1-8-5.83A48.55,48.55,0,0,1,0,26.26V145H1366V24.07A48.11,48.11,0,0,1,1352.31,52Z" transform="translate(0 -4)"/></svg>