<svg id="Capa_1" data-name="Capa 1" xmlns="http://www.w3.org/2000/svg" viewBox="0 0 1365.5 269.15"><defs><style>.cls-1{fill:#b79e7d;}.cls-2{opacity:0.1;}.cls-3{fill:#e2942d;}.cls-4{fill:#f3a734;}</style></defs><title>fondoMenu3</title><path class="cls-1" d="M1365.48,43.34h.52V34.45A76.62,76.62,0,0,1,1365.48,43.34Z" transform="translate(-0.5)"/><g class="cls-2"><path d="M1366,0H20.06V170a1.31,1.31,0,0,0,1.31,1.32,1.3,1.3,0,0,1,1.3,1.3,1.41,1.41,0,0,1-.05.35,76.88,76.88,0,0,0,2.9,48.13,76.47,76.47,0,0,0,71,48,76.51,76.51,0,0,0,71-48c0-.1.09-.21.12-.32A76.12,76.12,0,0,0,173,192.7c0-.91-.91-2.44-.06-2.71.3-.1.62-.19.93-.26,17.9-4.8,30,18.61,46.74,29.57h0c5,3.25,10.33,5.4,16.37,5.4a76.39,76.39,0,0,0,76.46-76.45v-.18a6.23,6.23,0,0,1,1.1-3.59,6.34,6.34,0,0,1,9.14-1.44,76.44,76.44,0,0,0,46.65,15.87A76.71,76.71,0,0,0,391.45,156,56.05,56.05,0,0,1,412.18,154a60.23,60.23,0,0,1,36.41,17l.32.3a76.46,76.46,0,0,0,128.71-44.57,76.5,76.5,0,0,0,.73-10.55c0-1,0-2-.06-3s-.1-1.86-.17-2.81a75.05,75.05,0,0,0,9.4,12.77,76.69,76.69,0,0,0,26.85,19.08h0A76.62,76.62,0,0,0,676.65,141a45.31,45.31,0,0,1,20.72-4.32,42.14,42.14,0,0,1,25.8,9.6,39.59,39.59,0,0,1,5.61,5.67c.88,1.07,1.78,2.12,2.71,3.15a76.6,76.6,0,0,0,20.85,16.25c2,1,4,2,6,2.86a76.38,76.38,0,0,0,81.77-14.35,34.25,34.25,0,0,1,22.87-9.1,36.49,36.49,0,0,1,21.64,6.69,76.51,76.51,0,0,0,110.92-25.59c.41-.75.82-1.51,1.21-2.27a1.28,1.28,0,0,1,2.42.37,75.91,75.91,0,0,0,18.67,37.69q1.71,1.92,3.57,3.7a75.65,75.65,0,0,0,23.21,15.31,73.68,73.68,0,0,0,10.22,3.5,76.3,76.3,0,0,0,96-72.67c0-.42,0-.83,0-1.26.43.61.87,1.19,1.34,1.78s.81,1.07,1.24,1.6,1.09,1.33,1.65,2c.32.38.66.75,1,1.12.12.14.25.29.39.43a4.59,4.59,0,0,0,.36.41c1,1.12,2.79,2.9,3.89,3.94l.44.41q1.63,1.53,3.37,2.94c.9.74,1.81,1.46,2.75,2.17l.27.19c.71.54,1.42,1.05,2.17,1.55l.14.11c.76.51,1.53,1,2.31,1.51l.11.09.41.24.14.09c.64.38,1.3.79,1.94,1.16l1.31.75c.43.25.87.48,1.32.71l1.35.69c.44.23.91.45,1.35.66,1.09.51,2.17,1,3.27,1.46.77.33,1.53.64,2.3.94l1.42.53,1.44.5c1,.32,1.94.64,2.91.92.48.15,1,.29,1.46.41s1,.27,1.48.39l1.54.38q.72.13,1.44.3a.28.28,0,0,0,.2,0c.69.16,1.39.3,2.1.41l.23,0,.21,0,.66.11.14,0a1.66,1.66,0,0,0,.22,0c.94.16,1.86.29,2.81.4.48.07,1,.12,1.45.16l1.32.12c1,.09,2.06.16,3.09.2h.13c.42,0,.85,0,1.28,0,.62,0,1.26,0,1.88,0a76.11,76.11,0,0,0,46.41-15.69,80.41,80.41,0,0,1,49.28-16.32h.32A76.19,76.19,0,0,0,1366,90.85Z" transform="translate(-0.5)"/></g><path class="cls-3" d="M14.72,0V164.71A1.32,1.32,0,0,0,16,166a1.3,1.3,0,0,1,1.3,1.29,1.09,1.09,0,0,1-.06.36,76.49,76.49,0,0,0,66.79,95.8q3.51.34,7.11.34a76.49,76.49,0,0,0,71-48c0-.11.09-.21.13-.32a76.17,76.17,0,0,0,5.33-28.13,11.76,11.76,0,0,0-.37-1.69c-.09-.48-.07-.89.32-1,22.19-7.09,35.38,29.28,58.87,34.15a24.49,24.49,0,0,0,5.19.56,76.35,76.35,0,0,0,76.45-76.46v-.18a6.35,6.35,0,0,1,10.24-5,76,76,0,0,0,39.49,15.54c2.37.23,4.75.34,7.17.34a76.64,76.64,0,0,0,21.12-3,56.31,56.31,0,0,1,8.43-1.73h0c17.72-2.24,35.63,4.09,48.7,16.82.1.11.21.2.32.31a76.18,76.18,0,0,0,45.87,21,69.8,69.8,0,0,0,7.11.34,76.49,76.49,0,0,0,75.64-65.2,78.61,78.61,0,0,0,.81-11.25c0-2-.07-3.91-.23-5.85a76.6,76.6,0,0,0,58.91,37.51,69.8,69.8,0,0,0,7.11.34,76.23,76.23,0,0,0,32.52-7.23,46,46,0,0,1,12.21-3.79c14.67-2.35,29.86,2.61,39.64,14.4.1.11.19.23.28.34a74.9,74.9,0,0,0,8,8.48,76,76,0,0,0,44.22,19.47q3.51.34,7.11.34A76.18,76.18,0,0,0,818.63,166a77.07,77.07,0,0,0,16.16-11.49,33.89,33.89,0,0,1,16.41-8.39,36.25,36.25,0,0,1,28.09,6,75.67,75.67,0,0,0,36.86,13.57q3.52.34,7.13.34a76.56,76.56,0,0,0,68.15-41.77,1.28,1.28,0,0,1,2.42.37,64.58,64.58,0,0,0,1.7,7.24A76.11,76.11,0,0,0,1016.09,166c.57.55,1.16,1.1,1.76,1.63a76,76,0,0,0,37,18.37c2.33.44,4.71.78,7.11,1a69.8,69.8,0,0,0,7.11.34,76.47,76.47,0,0,0,75.18-62.44,77.83,77.83,0,0,0,1.28-14c.43.6.87,1.19,1.33,1.78s.82,1.06,1.25,1.6,1.08,1.33,1.65,2c.32.37.66.74,1,1.12a.35.35,0,0,1,.08.1c.24.25.45.5.66.73,1,1.12,2.79,2.9,3.9,4l.44.41c.21.2.43.39.64.57.87.82,1.8,1.6,2.72,2.36s1.81,1.46,2.76,2.17l.26.2c.72.53,1.43,1,2.17,1.55l.15.1c.76.52,1.52,1,2.31,1.51a.81.81,0,0,0,.1.09l.41.25.14.09c.64.37,1.3.78,1.94,1.16.45.24.87.49,1.32.74s.87.48,1.31.71.89.47,1.36.7.9.44,1.35.65q2.71,1.32,5.56,2.41l1.42.53,1.44.5c1,.32,1.94.64,2.92.92.48.14,1,.29,1.46.41s1,.27,1.47.39l1.55.37c.48.09,1,.2,1.44.31a.27.27,0,0,0,.2,0c.69.16,1.38.3,2.09.41a1,1,0,0,0,.24,0l.21.05.66.11h.14l.21,0c.94.16,1.87.28,2.81.39.48.07,1,.13,1.46.16l.59,0c.25,0,.48.06.73.08,1,.08,2.06.16,3.09.19h.12c.43,0,.86,0,1.28,0,.63,0,1.27,0,1.89,0a76.08,76.08,0,0,0,46.4-15.68,80.44,80.44,0,0,1,49.29-16.32h.32a76.38,76.38,0,0,0,62.23-32V0Z" transform="translate(-0.5)"/><path class="cls-4" d="M.5,0V164.71A1.36,1.36,0,0,0,1.87,166a1.3,1.3,0,0,1,1.24,1.29,1.08,1.08,0,0,1,0,.36,76.43,76.43,0,0,0,63.72,95.46,77.55,77.55,0,0,0,10.17.68q3.6,0,7.12-.34A76.52,76.52,0,0,0,148,215.81c0-.11.09-.21.12-.32a76.18,76.18,0,0,0,5.34-28.13c0-.9-.91-2.43-.06-2.7a18.53,18.53,0,0,1,13.91,1,34.75,34.75,0,0,1,6.58,4.06c13.3,10.13,25.35,29.64,43.58,29.64,1.06,0,2.11,0,3.16-.07h0c2-.08,3.93-.24,5.85-.49a76.34,76.34,0,0,0,67.42-75.9v-.18a6.36,6.36,0,0,1,10.24-5c1.39,1.07,2.83,2.1,4.29,3.06,2,1.33,4,2.58,6.13,3.72a76.77,76.77,0,0,0,36.24,9.1c2.38,0,4.72-.11,7.05-.34a74.37,74.37,0,0,0,14.07-2.61,56.44,56.44,0,0,1,22.65-1.73h0A59.35,59.35,0,0,1,412.18,154,61.53,61.53,0,0,1,429,165.72c.11.11.22.2.32.31a76.14,76.14,0,0,0,42.76,20.64,75.12,75.12,0,0,0,10.23.69,69.8,69.8,0,0,0,7.11-.34,76.42,76.42,0,0,0,69.34-76.11c0-2-.07-3.91-.23-5.85a76.83,76.83,0,0,0,13.64,17.1c1.74,1.62,3.53,3.17,5.42,4.63a75.9,75.9,0,0,0,36.75,15.45h0a78,78,0,0,0,10.19.67,69.8,69.8,0,0,0,7.11-.34,75.74,75.74,0,0,0,25.41-6.89,45.11,45.11,0,0,1,26.43-3.79,41.83,41.83,0,0,1,13.84,4.8,40.19,40.19,0,0,1,11.86,9.94A76.73,76.73,0,0,0,732.78,166a75.92,75.92,0,0,0,25.57,8.19,73.8,73.8,0,0,0,10.24.7q3.6,0,7.12-.34a76.14,76.14,0,0,0,44.85-20,34.8,34.8,0,0,1,30.64-8.39A36.14,36.14,0,0,1,863,150.77c.71.43,1.4.87,2.08,1.35a75.84,75.84,0,0,0,33.74,13.21,73.94,73.94,0,0,0,10.25.7q3.6,0,7.09-.34a76.48,76.48,0,0,0,61.06-41.43,1.28,1.28,0,0,1,2.41.37,75,75,0,0,0,3.44,12.61A69,69,0,0,0,986.4,145a76.44,76.44,0,0,0,58.23,41.7,74.86,74.86,0,0,0,10.22.69A69.66,69.66,0,0,0,1062,187a76.4,76.4,0,0,0,69.34-76.11c.43.6.88,1.19,1.34,1.78l1.24,1.6c.54.67,1.09,1.33,1.66,2l1,1.12c.25.28.5.57.75.83,1,1.12,2.79,2.9,3.89,4l.38.35c.87.84,1.78,1.61,2.7,2.39l.07.06.66.54c.9.75,1.81,1.46,2.75,2.17l.27.2c.59.44,1.17.87,1.78,1.28l.39.27.14.1c.77.52,1.53,1,2.31,1.51l.11.09.41.25.14.09c.64.37,1.3.78,1.94,1.16l1.31.74c.43.25.88.48,1.32.71l1.35.7c.45.23.91.44,1.35.65,1.82.88,3.67,1.68,5.57,2.41l1.42.53,1.44.5c1,.32,1.94.64,2.92.92.48.14,1,.29,1.45.41s1,.27,1.48.39l1.55.37c.48.09,1,.2,1.44.31a.24.24,0,0,0,.19,0c.7.16,1.39.3,2.1.41a.93.93,0,0,0,.23,0l.22.05.65.11h.15l.21,0c.6.11,1.21.2,1.81.27.34,0,.66.09,1,.12s1,.13,1.46.16l1.31.13c1,.08,2.06.16,3.1.19h.12c.43,0,.85,0,1.28,0,.62,0,1.26,0,1.88,0a70,70,0,0,0,7.12-.34,75.86,75.86,0,0,0,39.29-15.34,80.41,80.41,0,0,1,49.29-16.32h.32A76.47,76.47,0,0,0,1366,34.45V0Z" transform="translate(-0.5)"/><path class="cls-4" d="M1365.48,43.34h.52V34.45A76.62,76.62,0,0,1,1365.48,43.34Z" transform="translate(-0.5)"/></svg>