<?xml version="1.0" encoding="utf-8"?>
<!-- Generator: Adobe Illustrator 23.0.3, SVG Export Plug-In . SVG Version: 6.00 Build 0)  -->
<svg version="1.1" id="Capa_2" xmlns="http://www.w3.org/2000/svg" xmlns:xlink="http://www.w3.org/1999/xlink" x="0px" y="0px"
	 viewBox="0 0 1366 768" style="enable-background:new 0 0 1366 768;" xml:space="preserve">
<style type="text/css">
	.st0{opacity:7.000000e-02;}
	.st1{fill:#8AD1E2;}
	.st2{fill:#A9EBFF;}
	.st3{opacity:0.56;fill:#FFFFFF;}
</style>
<g class="st0">
	<path d="M1367.8,7L1345,7.1L10,12v30.3c2.2,6.5,5.5,12.5,9.8,17.7c0.2,0.2,0.4,0.5,0.6,0.7c0,0,0,0,0,0
		c5.8,6.9,13.2,12.4,21.7,15.9c6.8,2.8,12.2,4.4,20,4.4h1.1c0.6,0,1.2-0.1,1.7-0.2C69.4,79.6,74.1,79,79,79h0
		c13.9,0,26.7,5,36.6,13.3c3.7,3.1,6.9,6.6,9.7,10.5c1.5,2,2.8,4.1,3.9,6.3c0,0,0,0,0,0c1.8,3.3,3.9,6.5,6.2,9.5c0,0,0,0,0,0
		c0,0,0,0,0,0c2.3,2.9,5,5.5,8,7.8c9.6,7.3,21.5,11.6,34.5,11.6c14,0,26.8,5,36.7,13.4c4.8,4,8.8,8.7,12.1,14.1
		c0.5,0.8,1,1.7,1.4,2.5c4.1,7.9,5.6,17,5,26c-0.1,1.4-0.2,2.7-0.2,4.1c0,3.1,0.2,6.1,0.7,9c1.6,10.1,5.9,19.3,12.1,26.9
		c0.2,0.2,0.4,0.5,0.6,0.7c10.5,12.4,26.1,20.3,43.6,20.3c19.5,0,36.8-9.8,47-24.8c2.6-3.8,4.7-7.8,6.3-12.1
		c5.1-13.6,15.2-24.8,28.7-30.1c2.5-1,5-1.8,7.6-2.4c5.5-1.3,11.2-1.3,16.8-0.3c3.1,0.5,6.2,0.8,9.5,0.8c0.6,0,1.3,0,1.9,0
		c23.6-0.8,43.6-15.9,51.5-37c0.2-0.6,0.4-1.2,0.6-1.8c0.5-2.5,1.1-5,1.9-7.4c4.3-12.7,12.9-23.3,24-30.3c8.7-5.4,19-8.5,30-8.5
		c1.5,0,3,0.1,4.5,0.2c1.5-0.1,3-0.2,4.5-0.2c14,0,26.8,5,36.7,13.4c5.5,4.6,10.1,10.3,13.6,16.7c0.6,1.1,1.1,2.2,1.6,3.2
		c0.4,0.8,0.6,1.6,0.7,2.5c0.6,4.2,1.6,8.3,3.1,12.2l1,2.5c2.1,4.9,4.8,9.4,8.1,13.4c0.2,0.2,0.4,0.5,0.6,0.7l0,0
		c10.5,12.4,26.1,20.3,43.6,20.3c24.4,0,45.3-15.4,53.4-37c2.3-6.2,3.6-13,3.6-20c0-31.5,25.5-57,57-57c4.2,0,8.2-0.5,12.1-1.3
		c0.6-0.1,1.2-0.3,1.7-0.4c3.9-0.8,8-1.3,12.1-1.3c13.9,0,26.7,5,36.6,13.3c1.7,1.4,3.3,2.9,4.8,4.5c0.7,0.8,1.5,1.6,2.1,2.4
		c0.6,0.7,1.2,1.4,1.7,2.2c0.4,0.5,0.8,1.1,1.2,1.7c0,0,0,0,0,0c10.4,11,25.1,17.9,41.4,17.9c16.7,0,31.7-7.2,42.1-18.6v0l0,0
		c0,0,0,0,0.1-0.1c0.3-0.4,0.7-0.8,1-1.2c0.7-0.8,1.3-1.6,2-2.4c0.5-0.6,0.9-1.2,1.4-1.9c0.4-0.6,0.9-1.3,1.3-1.9
		c0.1-0.1,0.2-0.3,0.3-0.4c0.3-0.5,0.6-0.9,0.9-1.4c0.3-0.5,0.5-1,0.8-1.4c0,0,0,0,0,0C922.3,70.2,937.3,63,954,63
		c6.2,0,12.2,1,17.8,2.8c0.6,0.2,1.2,0.2,1.8,0.1c3.4-0.6,6.9-1,10.4-1c13.9,0,26.7,5,36.6,13.3c5.5,4.7,10.2,10.4,13.7,16.8
		c0.4,0.7,0.7,1.4,1.1,2.1c0.9,3,2,5.8,3.3,8.6c1.9,4,4.3,7.7,7.1,11.1c0.2,0.3,0.4,0.5,0.7,0.8c10.4,12.4,26.1,20.3,43.6,20.3
		c26.8,0,49.2-18.5,55.3-43.4c0,0,0,0,0,0s0,0,0,0c0.3-2.5,0.7-4.9,1.3-7.2v0c6.1-24.9,28.6-43.3,55.3-43.3c0.7,0,1.3,0,2,0
		c0,0,0,0,0,0c0.7,0,1.3,0,2,0c13.9,0,26.7,5,36.6,13.3c5.5,4.6,10.2,10.3,13.6,16.7c1.3,2.5,2.5,5.1,3.4,7.7
		c1.2,3.3,2.1,6.8,2.6,10.4c2.2,6.1,5.4,11.8,9.4,16.7c0.2,0.2,0.4,0.5,0.6,0.7c10.7,12.7,26.8,20.7,44.9,20.3
		c10.1-0.2,19.6-3.1,27.8-8c10.8-6.4,19.3-16.4,24-28.1V51.6c-0.7-3.4-1-7-1-10.6c0-3.6,0.3-7.2,1-10.7V7H1367.8z M905.8,89.5
		c0.6-0.9,1.2-1.8,1.8-2.7C907,87.7,906.4,88.6,905.8,89.5z"/>
	<circle cx="290" cy="323" r="57"/>
</g>
<g>
	<path class="st1" d="M1364.8,2L1342,2.1L7,7v30.3c2.2,6.5,5.5,12.5,9.8,17.7c0.2,0.2,0.4,0.5,0.6,0.7c0,0,0,0,0,0
		c5.8,6.9,13.2,12.4,21.7,15.9c6.8,2.8,12.2,4.4,20,4.4h1.1c0.6,0,1.2-0.1,1.7-0.2C66.4,74.6,71.1,74,76,74h0
		c13.9,0,26.7,5,36.6,13.3c3.7,3.1,6.9,6.6,9.7,10.5c1.5,2,2.8,4.1,3.9,6.3c0,0,0,0,0,0c1.8,3.3,3.9,6.5,6.2,9.5c0,0,0,0,0,0
		c0,0,0,0,0,0c2.3,2.9,5,5.5,8,7.8c9.6,7.3,21.5,11.6,34.5,11.6c14,0,26.8,5,36.7,13.4c4.8,4,8.8,8.7,12.1,14.1
		c0.5,0.8,1,1.7,1.4,2.5c4.1,7.9,5.6,17,5,26c-0.1,1.4-0.2,2.7-0.2,4.1c0,3.1,0.2,6.1,0.7,9c1.6,10.1,5.9,19.3,12.1,26.9
		c0.2,0.2,0.4,0.5,0.6,0.7c10.5,12.4,26.1,20.3,43.6,20.3c19.5,0,36.8-9.8,47-24.8c2.6-3.8,4.7-7.8,6.3-12.1
		c5.1-13.6,15.2-24.8,28.7-30.1c2.5-1,5-1.8,7.6-2.4c5.5-1.3,11.2-1.3,16.8-0.3c3.1,0.5,6.2,0.8,9.5,0.8c0.6,0,1.3,0,1.9,0
		c23.6-0.8,43.6-15.9,51.5-37c0.2-0.6,0.4-1.2,0.6-1.8c0.5-2.5,1.1-5,1.9-7.4c4.3-12.7,12.9-23.3,24-30.3c8.7-5.4,19-8.5,30-8.5
		c1.5,0,3,0.1,4.5,0.2c1.5-0.1,3-0.2,4.5-0.2c14,0,26.8,5,36.7,13.4c5.5,4.6,10.1,10.3,13.6,16.7c0.6,1.1,1.1,2.2,1.6,3.2
		c0.4,0.8,0.6,1.6,0.7,2.5c0.6,4.2,1.6,8.3,3.1,12.2l1,2.5c2.1,4.9,4.8,9.4,8.1,13.4c0.2,0.2,0.4,0.5,0.6,0.7l0,0
		c10.5,12.4,26.1,20.3,43.6,20.3c24.4,0,45.3-15.4,53.4-37c2.3-6.2,3.6-13,3.6-20c0-31.5,25.5-57,57-57c4.2,0,8.2-0.5,12.1-1.3
		c0.6-0.1,1.2-0.3,1.7-0.4c3.9-0.8,8-1.3,12.1-1.3c13.9,0,26.7,5,36.6,13.3c1.7,1.4,3.3,2.9,4.8,4.5c0.7,0.8,1.5,1.6,2.1,2.4
		c0.6,0.7,1.2,1.4,1.7,2.2c0.4,0.5,0.8,1.1,1.2,1.7c0,0,0,0,0,0C828,99.1,842.7,106,859,106c16.7,0,31.7-7.2,42.1-18.6v0l0,0
		c0,0,0,0,0.1-0.1c0.3-0.4,0.7-0.8,1-1.2c0.7-0.8,1.3-1.6,2-2.4c0.5-0.6,0.9-1.2,1.4-1.9c0.4-0.6,0.9-1.3,1.3-1.9
		c0.1-0.1,0.2-0.3,0.3-0.4c0.3-0.5,0.6-0.9,0.9-1.4c0.3-0.5,0.5-1,0.8-1.4c0,0,0,0,0,0C919.3,65.2,934.3,58,951,58
		c6.2,0,12.2,1,17.8,2.8c0.6,0.2,1.2,0.2,1.8,0.1c3.4-0.6,6.9-1,10.4-1c13.9,0,26.7,5,36.6,13.3c5.5,4.7,10.2,10.4,13.7,16.8
		c0.4,0.7,0.7,1.4,1.1,2.1c0.9,3,2,5.8,3.3,8.6c1.9,4,4.3,7.7,7.1,11.1c0.2,0.3,0.4,0.5,0.7,0.8c10.4,12.4,26.1,20.3,43.6,20.3
		c26.8,0,49.2-18.5,55.3-43.4c0,0,0,0,0,0s0,0,0,0c0.3-2.5,0.7-4.9,1.3-7.2v0c6.1-24.9,28.6-43.3,55.3-43.3c0.7,0,1.3,0,2,0
		c0,0,0,0,0,0c0.7,0,1.3,0,2,0c13.9,0,26.7,5,36.6,13.3c5.5,4.6,10.2,10.3,13.6,16.7c1.3,2.5,2.5,5.1,3.4,7.7
		c1.2,3.3,2.1,6.8,2.6,10.4c2.2,6.1,5.4,11.8,9.4,16.7c0.2,0.2,0.4,0.5,0.6,0.7c10.7,12.7,26.8,20.7,44.9,20.3
		c10.1-0.2,19.6-3.1,27.8-8c10.8-6.4,19.3-16.4,24-28.1V46.6c-0.7-3.4-1-7-1-10.6c0-3.6,0.3-7.2,1-10.7V2H1364.8z M902.8,84.5
		c0.6-0.9,1.2-1.8,1.8-2.7C904,82.7,903.4,83.6,902.8,84.5z"/>
	<circle class="st1" cx="287" cy="318" r="57"/>
</g>
<g>
	<path class="st2" d="M1360.6,12c1.1-3.5,2.5-6.8,4.2-10c0.4-0.7,0.7-1.4,1.1-2H0v30.3c3.3,9.8,9.3,18.5,17,25.1
		c0.1,0.1,0.2,0.2,0.4,0.3c0,0,0,0,0,0c4.4,3.7,9.3,6.7,14.7,8.9c6.8,2.8,12.2,4.4,20,4.4h1.1c0.6,0,1.2-0.1,1.7-0.2
		C59.4,67.6,64.1,67,69,67h0c17.5,0,33.2,7.9,43.6,20.3c0.9,1.1,1.8,2.3,2.7,3.5c1.4,1.9,2.6,3.9,3.7,5.9c0.1,0.2,0.2,0.3,0.2,0.5
		c3.4,6.3,7.7,12,13.3,16.5c0,0,0,0,0,0c0.3,0.3,0.6,0.5,1,0.8c9.6,7.3,21.5,11.6,34.5,11.6c17.5,0,33.2,7.9,43.7,20.4
		c1.9,2.2,3.6,4.6,5.1,7.1c0.4,0.7,0.9,1.5,1.2,2.2c4.2,8,5.8,17.2,5.2,26.3c-0.1,1.4-0.2,2.7-0.2,4.1c0,3.1,0.2,6.1,0.7,9
		c2.2,13.7,9.2,25.7,19.3,34.3c0.1,0.1,0.3,0.2,0.4,0.3c9.9,8.3,22.7,13.3,36.6,13.3c19.5,0,36.8-9.8,47-24.8
		c2.6-3.8,4.7-7.8,6.3-12.1c5.1-13.6,15.2-24.8,28.7-30.1c2.5-1,5-1.8,7.6-2.4c5.5-1.3,11.2-1.3,16.8-0.3c3.1,0.5,6.2,0.8,9.5,0.8
		c0.6,0,1.3,0,1.9,0c23.6-0.8,43.6-15.9,51.5-37c0.2-0.6,0.4-1.2,0.6-1.8c0.5-2.5,1.1-5,1.9-7.4c4.3-12.7,12.9-23.3,24-30.3
		c8.7-5.4,19-8.5,30-8.5c1.5,0,3,0.1,4.5,0.2c1.5-0.1,3-0.2,4.5-0.2c17.5,0,33.2,7.9,43.7,20.4c2.4,2.9,4.6,6,6.4,9.3v0
		c0.6,1.2,1.2,2.4,1.8,3.6c0.4,0.8,0.6,1.6,0.7,2.5c0.6,4.2,1.6,8.3,3.1,12.2l1,2.5c3.5,8.1,8.8,15.2,15.3,20.8
		c0.1,0.1,0.2,0.2,0.4,0.3l0,0c9.9,8.3,22.7,13.3,36.6,13.3c24.4,0,45.3-15.4,53.4-37c2.3-6.2,3.6-13,3.6-20c0-31.5,25.5-57,57-57
		c4.2,0,8.2-0.5,12.1-1.3c0.6-0.1,1.2-0.3,1.7-0.4c3.9-0.8,8-1.3,12.1-1.3c16.3,0,31,6.9,41.4,17.9c0.7,0.8,1.5,1.6,2.1,2.4
		c0,0,0,0,0,0.1c1,1.2,2,2.5,2.9,3.8c0,0,0,0,0,0c1.8,1.9,3.7,3.7,5.8,5.3C826.1,94.3,838.5,99,852,99c16.7,0,31.7-7.2,42.1-18.6v0
		l0,0c0,0,0,0,0.1-0.1c0.3-0.4,0.7-0.8,1-1.2c0.7-0.8,1.3-1.6,2-2.4c0.5-0.6,0.9-1.2,1.4-1.9c0.4-0.6,0.9-1.3,1.3-1.9
		c0.1-0.1,0.2-0.3,0.3-0.4c0.3-0.5,0.6-0.9,0.9-1.4c0.3-0.5,0.5-1,0.8-1.4c0,0,0,0,0,0C912.3,58.2,927.3,51,944,51
		c6.2,0,12.2,1,17.8,2.8c0.6,0.2,1.2,0.2,1.8,0.1c3.4-0.6,6.9-1,10.4-1c17.5,0,33.2,7.9,43.6,20.3c2.4,2.9,4.6,6,6.4,9.3
		c0,0,0,0,0,0c0.5,0.8,0.9,1.7,1.3,2.6c0.9,3,2,5.8,3.3,8.6c3.5,7.1,8.4,13.5,14.3,18.6c0,0,0,0,0,0c0.1,0.1,0.2,0.2,0.4,0.3
		c9.9,8.3,22.7,13.3,36.6,13.3c26.8,0,49.2-18.5,55.3-43.4c0,0,0,0,0,0s0,0,0,0c0.3-2.5,0.7-4.9,1.3-7.2v0
		c6.1-24.9,28.6-43.3,55.3-43.3c0.7,0,1.3,0,2,0c0,0,0,0,0,0c0.7,0,1.3,0,2,0c17.5,0,33.2,7.9,43.6,20.3c2.4,2.9,4.6,6,6.4,9.4
		c1.4,2.6,2.6,5.3,3.6,8.1c1.2,3.3,2.1,6.8,2.6,10.4c3.4,9.4,9.2,17.7,16.6,24.1c0.1,0.1,0.2,0.2,0.4,0.3
		c10.2,8.6,23.4,13.6,37.9,13.3c13.2-0.3,25.3-5.1,34.8-12.9c13-10.7,21.2-26.9,21-44.8c0-3.6-0.4-7.2-1.1-10.6
		c-0.8-2.1-1.5-4.3-2.1-6.6c-0.2-0.9-0.4-1.8-0.6-2.8c-0.7-3.7-1.1-7.4-1.1-11.3c0-4.5,0.5-8.8,1.5-13
		C1359.8,14.6,1360.2,13.3,1360.6,12z M895.8,77.5c0.6-0.9,1.2-1.8,1.8-2.7C897,75.7,896.4,76.6,895.8,77.5z"/>
	<circle class="st2" cx="280" cy="311" r="57"/>
</g>
<path class="st3" d="M263.3,338.8c9,9,20.9,13.3,32.6,12.9c-15.7,6-34.1,2.6-46.7-10c-17.2-17.2-17.2-45,0-62.2
	c8.2-8.2,18.9-12.5,29.6-12.9c-5.6,2.1-10.9,5.5-15.5,10C246.2,293.7,246.2,321.6,263.3,338.8z"/>
<path class="st3" d="M266.1,209.5c6.7,6.7,15.6,9.9,24.3,9.6c-11.7,4.4-25.4,1.9-34.9-7.5c-12.8-12.8-12.8-33.6,0-46.4
	c6.1-6.1,14.1-9.3,22.1-9.6c-4.2,1.6-8.2,4.1-11.6,7.5C253.2,175.9,253.2,196.7,266.1,209.5z"/>
<path class="st3" d="M612.1,149.5c6.7,6.7,15.6,9.9,24.3,9.6c-11.7,4.4-25.4,1.9-34.9-7.5c-12.8-12.8-12.8-33.6,0-46.4
	c6.1-6.1,14.1-9.3,22.1-9.6c-4.2,1.6-8.2,4.1-11.6,7.5C599.2,115.9,599.2,136.7,612.1,149.5z"/>
<path class="st3" d="M1061.1,97.5c6.7,6.7,15.6,9.9,24.3,9.6c-11.7,4.4-25.4,1.9-34.9-7.5c-12.8-12.8-12.8-33.6,0-46.4
	c6.1-6.1,14.1-9.3,22.1-9.6c-4.2,1.6-8.2,4.1-11.6,7.5C1048.2,63.9,1048.2,84.7,1061.1,97.5z"/>
</svg>
