<svg xmlns="http://www.w3.org/2000/svg" xmlns:xlink="http://www.w3.org/1999/xlink" viewBox="0 0 1366 768"><defs><style>.cls-1{fill:url(#Degradado_sin_nombre_30);}.cls-2{opacity:0.4;}.cls-3{fill:#fff;}</style><linearGradient id="Degradado_sin_nombre_30" y1="384" x2="1366" y2="384" gradientUnits="userSpaceOnUse"><stop offset="0" stop-color="#06ceef"/><stop offset="0.17" stop-color="#0ac8f6"/><stop offset="0.45" stop-color="#0bc6f9"/><stop offset="0.62" stop-color="#23d2fb"/><stop offset="0.86" stop-color="#41e0fe"/><stop offset="1" stop-color="#4de6ff"/></linearGradient></defs><title>Mesa de trabajo 1</title><g id="Capa_1" data-name="Capa 1"><rect class="cls-1" width="1366" height="768"/></g><g id="Capa_2" data-name="Capa 2"><g class="cls-2"><path class="cls-3" d="M97.66,0V9.29a12,12,0,0,1-12,12h-4V0Z"/><path class="cls-3" d="M1,0V25.32a4,4,0,0,1-1,2.61V0Z"/><path class="cls-3" d="M73.62,0V21.31a8,8,0,0,1-8,8h-4a4,4,0,0,1-4-4V0Z"/></g><g class="cls-2"><path class="cls-3" d="M213.63,0V25a4.27,4.27,0,0,1-2.43,3.86,4.22,4.22,0,0,1-1.86.43,4.33,4.33,0,0,1-2.69-.93L171.17,0Z"/><path class="cls-3" d="M234.84,0a4.24,4.24,0,0,1-2.5.81,4.28,4.28,0,0,1-2.5-.81Z"/><path class="cls-3" d="M256.66,0a59.49,59.49,0,0,1-9.19,11.67,4.27,4.27,0,0,1-3,1.25,4.29,4.29,0,0,1-3-7.34A52.41,52.41,0,0,0,246.3,0Z"/></g><g class="cls-2"><path class="cls-3" d="M424.68,0H319.77a12.85,12.85,0,0,0,5.08,1h30.69l-2.36,7.07H351a10.62,10.62,0,0,0-10.61,10.61v7.07a3.53,3.53,0,0,0,3.53,3.53h56.57A3.53,3.53,0,0,0,404,25.79V18.72a10.61,10.61,0,0,0-10.6-10.61h-2.17L388.92,1H419.6A12.85,12.85,0,0,0,424.68,0ZM363,1h18.47l2.36,7.07H360.63Zm30.45,14.14A3.54,3.54,0,0,1,397,18.72v3.53H347.48V18.72A3.55,3.55,0,0,1,351,15.18Z"/></g><g class="cls-2"><path class="cls-3" d="M612.69,0V18.18A5.61,5.61,0,0,1,607,23.84a5.14,5.14,0,0,1-3.16-1L585.26,12c-.17,0-.17-.16-.33-.16l-4.49-2.66V0Z"/><path class="cls-3" d="M575.78,0V15.86a13.51,13.51,0,0,1-13.46,13.46H494a13.51,13.51,0,0,1-13.46-13.46V0Z"/></g><g class="cls-2"><path class="cls-3" d="M646.79,0h16V21.31h-4a12,12,0,0,1-12-12Z"/><path class="cls-3" d="M783.55,0V9.29a12,12,0,0,1-12,12h-4V0Z"/><path class="cls-3" d="M686.86,0V25.32a4,4,0,0,1-4,4h-4a8,8,0,0,1-8-8V0Z"/><path class="cls-3" d="M759.51,0V21.31a8,8,0,0,1-8,8h-4a4,4,0,0,1-4-4V0Z"/></g><g class="cls-2"><path class="cls-3" d="M899.52,0V25a4.28,4.28,0,0,1-2.43,3.86,4.22,4.22,0,0,1-1.86.43,4.31,4.31,0,0,1-2.69-.93L857.06,0Z"/><path class="cls-3" d="M920.73,0a4.24,4.24,0,0,1-2.5.81,4.28,4.28,0,0,1-2.5-.81Z"/><path class="cls-3" d="M942.55,0a60.25,60.25,0,0,1-9.19,11.67,4.27,4.27,0,0,1-3,1.25,4.29,4.29,0,0,1-3-7.34A52.41,52.41,0,0,0,932.19,0Z"/></g><g class="cls-2"><path class="cls-3" d="M1110.57,0H1005.66a12.85,12.85,0,0,0,5.08,1h30.68l-2.35,7.07h-2.17a10.61,10.61,0,0,0-10.6,10.61v7.07a3.53,3.53,0,0,0,3.53,3.53h56.56a3.53,3.53,0,0,0,3.54-3.53V18.72a10.62,10.62,0,0,0-10.61-10.61h-2.16L1074.8,1h30.68A12.9,12.9,0,0,0,1110.57,0Zm-61.69,1h18.47l2.36,7.07h-23.19Zm30.44,14.14a3.55,3.55,0,0,1,3.54,3.54v3.53h-49.49V18.72a3.54,3.54,0,0,1,3.53-3.54Z"/></g><g class="cls-2"><path class="cls-3" d="M1298.58,0V18.18a5.61,5.61,0,0,1-5.65,5.66,5.14,5.14,0,0,1-3.16-1L1271.15,12c-.17,0-.17-.16-.34-.16l-4.48-2.66V0Z"/><path class="cls-3" d="M1261.67,0V15.86a13.51,13.51,0,0,1-13.46,13.46h-68.33a13.51,13.51,0,0,1-13.47-13.46V0Z"/></g><g class="cls-2"><path class="cls-3" d="M1348.7,0V21.31h-4a12,12,0,0,1-12-12V0Z"/><path class="cls-3" d="M1366,0V29.32h-1.27a8,8,0,0,1-8-8V0Z"/></g><g class="cls-2"><path class="cls-3" d="M112.2,54.55a4.28,4.28,0,0,0-4.54.52L65.9,88.47H46a8.6,8.6,0,0,0-8.58,8.59V131.4A8.58,8.58,0,0,0,46,140h20l41.75,33.41a4.33,4.33,0,0,0,2.69.93,4.22,4.22,0,0,0,1.86-.43,4.27,4.27,0,0,0,2.43-3.86V58.42A4.3,4.3,0,0,0,112.2,54.55Z"/><path class="cls-3" d="M136.36,83.87a4.29,4.29,0,0,0-6,6.11,34.25,34.25,0,0,1,0,48.49,4.29,4.29,0,1,0,6,6.1,42.83,42.83,0,0,0,0-60.7Z"/><path class="cls-3" d="M148.47,71.77a4.3,4.3,0,0,0-6.05,6.1,51.22,51.22,0,0,1,0,72.71,4.29,4.29,0,0,0,3,7.34,4.27,4.27,0,0,0,3-1.25,59.83,59.83,0,0,0,0-84.9Z"/></g><g class="cls-2"><path class="cls-3" d="M320.6,54.13H225.85a13,13,0,0,0-13,13v66a13,13,0,0,0,13,13h30.69l-2.36,7.07H252a10.62,10.62,0,0,0-10.61,10.61v7.07a3.53,3.53,0,0,0,3.53,3.53h56.57a3.53,3.53,0,0,0,3.53-3.53v-7.07a10.61,10.61,0,0,0-10.6-10.61h-2.17L289.92,146H320.6a13,13,0,0,0,13-13v-66A13,13,0,0,0,320.6,54.13ZM294.44,160.18a3.54,3.54,0,0,1,3.53,3.54v3.53H248.48v-3.53a3.55,3.55,0,0,1,3.54-3.54Zm-32.81-7.07L264,146h18.47l2.36,7.07Zm64.86-20A5.89,5.89,0,0,1,320.6,139H225.85a5.9,5.9,0,0,1-5.89-5.89V131.9H326.49Zm0-8.25H220V67.09a5.9,5.9,0,0,1,5.89-5.89H320.6a5.89,5.89,0,0,1,5.89,5.89Z"/><path class="cls-3" d="M289.58,109.65a3.52,3.52,0,0,0,5,0l14.14-14.14a3.54,3.54,0,0,0,0-5L294.58,76.37a3.54,3.54,0,0,0-5,5L301.22,93l-11.64,11.65A3.52,3.52,0,0,0,289.58,109.65Z"/><path class="cls-3" d="M251.87,109.65a3.53,3.53,0,0,0,5-5L245.23,93l11.64-11.64a3.54,3.54,0,0,0-5-5L237.73,90.51a3.54,3.54,0,0,0,0,5Z"/><path class="cls-3" d="M265,117.58a3.64,3.64,0,0,0,1.12.18,3.53,3.53,0,0,0,3.35-2.42l14.14-42.42a3.54,3.54,0,0,0-6.71-2.24L262.8,113.11A3.54,3.54,0,0,0,265,117.58Z"/></g><g class="cls-2"><path class="cls-3" d="M513,116.14a5.66,5.66,0,0,0-7.82-2l-18.95,11-4.82,2.83v26.27l4.49,2.66c.16,0,.16.16.33.16l18.62,10.81a5.14,5.14,0,0,0,3.16,1,5.61,5.61,0,0,0,5.65-5.66V140.91l.17-22A4.37,4.37,0,0,0,513,116.14Z"/><path class="cls-3" d="M402.31,54.13a26.77,26.77,0,1,0,26.76,26.76A26.75,26.75,0,0,0,402.31,54.13Zm0,37.74a11.08,11.08,0,0,1-11-11,10.76,10.76,0,0,1,11-11,11,11,0,0,1,0,22Z"/><path class="cls-3" d="M470.13,109.15a31.73,31.73,0,0,1-14.29,3.5,31.05,31.05,0,0,1-17.29-5.16H419.6a31.08,31.08,0,0,1-17.29,5.16,29.79,29.79,0,0,1-14.3-3.5,13,13,0,0,0-6.48,11.14v40.57A13.51,13.51,0,0,0,395,174.32h68.33a13.51,13.51,0,0,0,13.46-13.46V120.29A13.51,13.51,0,0,0,470.13,109.15Z"/><path class="cls-3" d="M455.84,54.13A26.77,26.77,0,1,0,482.6,80.89,26.75,26.75,0,0,0,455.84,54.13Zm0,37.74a11.07,11.07,0,0,1-11-11,11,11,0,0,1,21.94,0A11,11,0,0,1,455.84,91.87Z"/></g><g class="cls-2"><path class="cls-3" d="M616.17,54.13c-37.56,0-68.38,30.55-68.38,68.11v32.05a12,12,0,0,0,12,12h4V126.25h-4a11.88,11.88,0,0,0-4,.73v-4.74c0-33.14,27.23-60.1,60.37-60.1s60.36,27,60.36,60.1V127a11.78,11.78,0,0,0-4-.73h-4v40.06h4a12,12,0,0,0,12-12v-32C684.55,84.68,653.73,54.13,616.17,54.13Z"/><path class="cls-3" d="M583.85,118.23h-4a8,8,0,0,0-8,8v40.06a8,8,0,0,0,8,8h4a4,4,0,0,0,4-4V122.24A4,4,0,0,0,583.85,118.23Z"/><path class="cls-3" d="M652.5,118.23h-4a4,4,0,0,0-4,4v48.08a4,4,0,0,0,4,4h4a8,8,0,0,0,8-8V126.25A8,8,0,0,0,652.5,118.23Z"/></g><g class="cls-2"><path class="cls-3" d="M798.09,54.55a4.28,4.28,0,0,0-4.54.52l-41.76,33.4H731.84a8.61,8.61,0,0,0-8.59,8.59V131.4a8.59,8.59,0,0,0,8.59,8.58h19.95l41.75,33.41a4.31,4.31,0,0,0,2.69.93,4.22,4.22,0,0,0,1.86-.43,4.28,4.28,0,0,0,2.43-3.86V58.42A4.32,4.32,0,0,0,798.09,54.55Z"/><path class="cls-3" d="M822.25,83.87a4.3,4.3,0,0,0-6,6.11,34.25,34.25,0,0,1,0,48.49,4.29,4.29,0,0,0,6,6.1,42.83,42.83,0,0,0,0-60.7Z"/><path class="cls-3" d="M834.36,71.77a4.3,4.3,0,1,0-6.05,6.1,51.24,51.24,0,0,1,0,72.71,4.29,4.29,0,0,0,3,7.34,4.27,4.27,0,0,0,3-1.25,59.83,59.83,0,0,0,0-84.9Z"/></g><g class="cls-2"><path class="cls-3" d="M1006.48,54.13H911.74a13,13,0,0,0-13,13v66a13,13,0,0,0,13,13h30.68l-2.35,7.07H937.9a10.61,10.61,0,0,0-10.6,10.61v7.07a3.53,3.53,0,0,0,3.53,3.53h56.56a3.53,3.53,0,0,0,3.54-3.53v-7.07a10.62,10.62,0,0,0-10.61-10.61h-2.16L975.8,146h30.68a13,13,0,0,0,13-13v-66A13,13,0,0,0,1006.48,54.13ZM980.32,160.18a3.55,3.55,0,0,1,3.54,3.54v3.53H934.37v-3.53a3.54,3.54,0,0,1,3.53-3.54Zm-32.8-7.07,2.36-7.07h18.47l2.36,7.07Zm64.86-20a5.9,5.9,0,0,1-5.9,5.89H911.74a5.89,5.89,0,0,1-5.89-5.89V131.9h106.53Zm0-8.25H905.85V67.09a5.89,5.89,0,0,1,5.89-5.89h94.74a5.9,5.9,0,0,1,5.9,5.89Z"/><path class="cls-3" d="M975.47,109.65a3.52,3.52,0,0,0,5,0l14.14-14.14a3.54,3.54,0,0,0,0-5L980.47,76.37a3.54,3.54,0,0,0-5,5L987.11,93l-11.64,11.65A3.52,3.52,0,0,0,975.47,109.65Z"/><path class="cls-3" d="M937.76,109.65a3.52,3.52,0,0,0,5,0,3.52,3.52,0,0,0,0-5L931.12,93l11.64-11.64a3.54,3.54,0,0,0-5-5L923.62,90.51a3.54,3.54,0,0,0,0,5Z"/><path class="cls-3" d="M950.93,117.58a3.54,3.54,0,0,0,4.47-2.24l14.14-42.42a3.54,3.54,0,0,0-6.71-2.24l-14.14,42.43A3.53,3.53,0,0,0,950.93,117.58Z"/></g><g class="cls-2"><path class="cls-3" d="M1198.91,116.14a5.64,5.64,0,0,0-7.81-2l-18.95,11-4.82,2.83v26.27l4.48,2.66c.17,0,.17.16.34.16l18.62,10.81a5.14,5.14,0,0,0,3.16,1,5.61,5.61,0,0,0,5.65-5.66V140.91l.16-22A4.32,4.32,0,0,0,1198.91,116.14Z"/><path class="cls-3" d="M1088.19,54.13A26.77,26.77,0,1,0,1115,80.89,26.75,26.75,0,0,0,1088.19,54.13Zm0,37.74a11.07,11.07,0,0,1-11-11,10.75,10.75,0,0,1,11-11,11,11,0,1,1,0,22Z"/><path class="cls-3" d="M1156,109.15a31.74,31.74,0,0,1-14.3,3.5,31.08,31.08,0,0,1-17.29-5.16h-19a31,31,0,0,1-17.29,5.16,29.78,29.78,0,0,1-14.29-3.5,13,13,0,0,0-6.49,11.14v40.57a13.51,13.51,0,0,0,13.47,13.46h68.33a13.51,13.51,0,0,0,13.46-13.46V120.29A13.54,13.54,0,0,0,1156,109.15Z"/><path class="cls-3" d="M1141.72,54.13a26.77,26.77,0,1,0,26.77,26.76A26.75,26.75,0,0,0,1141.72,54.13Zm0,37.74a11.07,11.07,0,0,1-11-11,11,11,0,0,1,22,0A11,11,0,0,1,1141.72,91.87Z"/></g><g class="cls-2"><path class="cls-3" d="M1366,163.61a12,12,0,0,1-7.58,2.7h-4V126.25h4a11.82,11.82,0,0,1,4,.73v-4.74c0-33.14-27.22-60.1-60.36-60.1s-60.37,27-60.37,60.1V127a11.88,11.88,0,0,1,4-.73h4v40.06h-4a12,12,0,0,1-12-12v-32c0-37.56,30.82-68.11,68.38-68.11a68.6,68.6,0,0,1,63.94,44Z"/><path class="cls-3" d="M1269.74,118.23h-4a8,8,0,0,0-8,8v40.06a8,8,0,0,0,8,8h4a4,4,0,0,0,4-4V122.24A4,4,0,0,0,1269.74,118.23Z"/><path class="cls-3" d="M1338.38,118.23h-4a4,4,0,0,0-4,4v48.08a4,4,0,0,0,4,4h4a8,8,0,0,0,8-8V126.25A8,8,0,0,0,1338.38,118.23Z"/></g><g class="cls-2"><path class="cls-3" d="M112.66,267.24v32.05a12,12,0,0,1-12,12h-4V271.25h4a11.88,11.88,0,0,1,4,.73v-4.74c0-33.14-27.23-60.1-60.37-60.1A60.35,60.35,0,0,0,0,226.5V215.44a68.18,68.18,0,0,1,44.28-16.31C81.84,199.13,112.66,229.68,112.66,267.24Z"/><path class="cls-3" d="M12,263.23H8a8,8,0,0,0-8,8v40.06a8,8,0,0,0,8,8h4a4,4,0,0,0,4-4V267.24A4,4,0,0,0,12,263.23Z"/><path class="cls-3" d="M80.61,263.23h-4a4,4,0,0,0-4,4v48.08a4,4,0,0,0,4,4h4a8,8,0,0,0,8-8V271.25A8,8,0,0,0,80.61,263.23Z"/></g><g class="cls-2"><path class="cls-3" d="M226.2,199.55a4.28,4.28,0,0,0-4.54.52l-41.76,33.4H160a8.6,8.6,0,0,0-8.58,8.59V276.4A8.58,8.58,0,0,0,160,285h20l41.75,33.41a4.33,4.33,0,0,0,2.69.93,4.22,4.22,0,0,0,1.86-.43,4.27,4.27,0,0,0,2.43-3.86V203.42A4.3,4.3,0,0,0,226.2,199.55Z"/><path class="cls-3" d="M250.36,228.87a4.29,4.29,0,1,0-6,6.11,34.25,34.25,0,0,1,0,48.49,4.29,4.29,0,1,0,6,6.1,42.83,42.83,0,0,0,0-60.7Z"/><path class="cls-3" d="M262.47,216.77a4.3,4.3,0,0,0-6.05,6.1,51.22,51.22,0,0,1,0,72.71,4.29,4.29,0,0,0,3,7.34,4.27,4.27,0,0,0,3-1.25,59.83,59.83,0,0,0,0-84.9Z"/></g><g class="cls-2"><path class="cls-3" d="M434.6,199.13H339.85a13,13,0,0,0-13,13v66a13,13,0,0,0,13,13h30.69l-2.36,7.07H366a10.62,10.62,0,0,0-10.61,10.61v7.07a3.53,3.53,0,0,0,3.53,3.53h56.57a3.53,3.53,0,0,0,3.53-3.53v-7.07a10.61,10.61,0,0,0-10.6-10.61h-2.17L403.92,291H434.6a13,13,0,0,0,13-13v-66A13,13,0,0,0,434.6,199.13ZM408.44,305.18a3.54,3.54,0,0,1,3.53,3.54v3.53H362.48v-3.53a3.55,3.55,0,0,1,3.54-3.54Zm-32.81-7.07L378,291h18.47l2.36,7.07Zm64.86-20A5.89,5.89,0,0,1,434.6,284H339.85a5.9,5.9,0,0,1-5.89-5.89V276.9H440.49Zm0-8.25H334V212.09a5.9,5.9,0,0,1,5.89-5.89H434.6a5.89,5.89,0,0,1,5.89,5.89Z"/><path class="cls-3" d="M403.58,254.65a3.52,3.52,0,0,0,5,0l14.14-14.14a3.54,3.54,0,0,0,0-5l-14.14-14.14a3.54,3.54,0,0,0-5,5L415.22,238l-11.64,11.65A3.52,3.52,0,0,0,403.58,254.65Z"/><path class="cls-3" d="M365.87,254.65a3.53,3.53,0,0,0,5-5L359.23,238l11.64-11.64a3.54,3.54,0,0,0-5-5l-14.14,14.14a3.54,3.54,0,0,0,0,5Z"/><path class="cls-3" d="M379,262.58a3.64,3.64,0,0,0,1.12.18,3.53,3.53,0,0,0,3.35-2.42l14.14-42.42a3.54,3.54,0,0,0-6.71-2.24L376.8,258.11A3.54,3.54,0,0,0,379,262.58Z"/></g><g class="cls-2"><path class="cls-3" d="M627,261.14a5.66,5.66,0,0,0-7.82-2l-19,11-4.82,2.83v26.27l4.49,2.66c.16,0,.16.16.33.16l18.62,10.81a5.14,5.14,0,0,0,3.16,1,5.61,5.61,0,0,0,5.65-5.66V285.91l.17-22A4.37,4.37,0,0,0,627,261.14Z"/><path class="cls-3" d="M516.31,199.13a26.77,26.77,0,1,0,26.76,26.76A26.75,26.75,0,0,0,516.31,199.13Zm0,37.74a11.08,11.08,0,0,1-11-11,10.76,10.76,0,0,1,11-11,11,11,0,0,1,0,22Z"/><path class="cls-3" d="M584.13,254.15a31.73,31.73,0,0,1-14.29,3.5,31.05,31.05,0,0,1-17.29-5.16H533.6a31.08,31.08,0,0,1-17.29,5.16,29.79,29.79,0,0,1-14.3-3.5,13,13,0,0,0-6.48,11.14v40.57A13.51,13.51,0,0,0,509,319.32h68.33a13.51,13.51,0,0,0,13.46-13.46V265.29A13.51,13.51,0,0,0,584.13,254.15Z"/><path class="cls-3" d="M569.84,199.13a26.77,26.77,0,1,0,26.76,26.76A26.75,26.75,0,0,0,569.84,199.13Zm0,37.74a11.07,11.07,0,0,1-11-11,11,11,0,1,1,21.94,0A11,11,0,0,1,569.84,236.87Z"/></g><g class="cls-2"><path class="cls-3" d="M730.17,199.13c-37.56,0-68.38,30.55-68.38,68.11v32.05a12,12,0,0,0,12,12h4V271.25h-4a11.88,11.88,0,0,0-4,.73v-4.74c0-33.14,27.23-60.1,60.37-60.1s60.36,27,60.36,60.1V272a11.78,11.78,0,0,0-4-.73h-4v40.06h4a12,12,0,0,0,12-12V267.24C798.55,229.68,767.73,199.13,730.17,199.13Z"/><path class="cls-3" d="M697.85,263.23h-4a8,8,0,0,0-8,8v40.06a8,8,0,0,0,8,8h4a4,4,0,0,0,4-4V267.24A4,4,0,0,0,697.85,263.23Z"/><path class="cls-3" d="M766.5,263.23h-4a4,4,0,0,0-4,4v48.08a4,4,0,0,0,4,4h4a8,8,0,0,0,8-8V271.25A8,8,0,0,0,766.5,263.23Z"/></g><g class="cls-2"><path class="cls-3" d="M912.09,199.55a4.28,4.28,0,0,0-4.54.52l-41.76,33.4H845.84a8.61,8.61,0,0,0-8.59,8.59V276.4a8.59,8.59,0,0,0,8.59,8.58h19.95l41.75,33.41a4.31,4.31,0,0,0,2.69.93,4.22,4.22,0,0,0,1.86-.43,4.28,4.28,0,0,0,2.43-3.86V203.42A4.32,4.32,0,0,0,912.09,199.55Z"/><path class="cls-3" d="M936.25,228.87a4.3,4.3,0,0,0-6,6.11,34.25,34.25,0,0,1,0,48.49,4.29,4.29,0,0,0,6,6.1,42.83,42.83,0,0,0,0-60.7Z"/><path class="cls-3" d="M948.36,216.77a4.3,4.3,0,1,0-6.05,6.1,51.24,51.24,0,0,1,0,72.71,4.29,4.29,0,0,0,3,7.34,4.27,4.27,0,0,0,3-1.25,59.83,59.83,0,0,0,0-84.9Z"/></g><g class="cls-2"><path class="cls-3" d="M1120.48,199.13h-94.74a13,13,0,0,0-13,13v66a13,13,0,0,0,13,13h30.68l-2.35,7.07h-2.17a10.61,10.61,0,0,0-10.6,10.61v7.07a3.53,3.53,0,0,0,3.53,3.53h56.56a3.53,3.53,0,0,0,3.54-3.53v-7.07a10.62,10.62,0,0,0-10.61-10.61h-2.16L1089.8,291h30.68a13,13,0,0,0,13-13v-66A13,13,0,0,0,1120.48,199.13Zm-26.16,106.05a3.55,3.55,0,0,1,3.54,3.54v3.53h-49.49v-3.53a3.54,3.54,0,0,1,3.53-3.54Zm-32.8-7.07,2.36-7.07h18.47l2.36,7.07Zm64.86-20a5.9,5.9,0,0,1-5.9,5.89h-94.74a5.89,5.89,0,0,1-5.89-5.89V276.9h106.53Zm0-8.25H1019.85V212.09a5.89,5.89,0,0,1,5.89-5.89h94.74a5.9,5.9,0,0,1,5.9,5.89Z"/><path class="cls-3" d="M1089.47,254.65a3.52,3.52,0,0,0,5,0l14.14-14.14a3.54,3.54,0,0,0,0-5l-14.14-14.14a3.54,3.54,0,0,0-5,5L1101.11,238l-11.64,11.65A3.52,3.52,0,0,0,1089.47,254.65Z"/><path class="cls-3" d="M1051.76,254.65a3.52,3.52,0,0,0,5,0,3.52,3.52,0,0,0,0-5L1045.12,238l11.64-11.64a3.54,3.54,0,0,0-5-5l-14.14,14.14a3.54,3.54,0,0,0,0,5Z"/><path class="cls-3" d="M1064.93,262.58a3.54,3.54,0,0,0,4.47-2.24l14.14-42.42a3.54,3.54,0,0,0-6.71-2.24l-14.14,42.43A3.53,3.53,0,0,0,1064.93,262.58Z"/></g><g class="cls-2"><path class="cls-3" d="M1312.91,261.14a5.64,5.64,0,0,0-7.81-2l-18.95,11-4.82,2.83v26.27l4.48,2.66c.17,0,.17.16.34.16l18.62,10.81a5.14,5.14,0,0,0,3.16,1,5.61,5.61,0,0,0,5.65-5.66V285.91l.16-22A4.32,4.32,0,0,0,1312.91,261.14Z"/><path class="cls-3" d="M1202.19,199.13A26.77,26.77,0,1,0,1229,225.89,26.75,26.75,0,0,0,1202.19,199.13Zm0,37.74a11.07,11.07,0,0,1-11-11,10.75,10.75,0,0,1,11-11,11,11,0,1,1,0,22Z"/><path class="cls-3" d="M1270,254.15a31.74,31.74,0,0,1-14.3,3.5,31.08,31.08,0,0,1-17.29-5.16h-19a31,31,0,0,1-17.29,5.16,29.78,29.78,0,0,1-14.29-3.5,13,13,0,0,0-6.49,11.14v40.57a13.51,13.51,0,0,0,13.47,13.46h68.33a13.51,13.51,0,0,0,13.46-13.46V265.29A13.54,13.54,0,0,0,1270,254.15Z"/><path class="cls-3" d="M1255.72,199.13a26.77,26.77,0,1,0,26.77,26.76A26.75,26.75,0,0,0,1255.72,199.13Zm0,37.74a11.07,11.07,0,0,1-11-11,11,11,0,0,1,22,0A11,11,0,0,1,1255.72,236.87Z"/></g><g class="cls-2"><path class="cls-3" d="M1366,221a67.61,67.61,0,0,0-18.32,46.29v32.05a12,12,0,0,0,12,12h4V271.25h-4a11.88,11.88,0,0,0-4,.73v-4.74A59.43,59.43,0,0,1,1366,233.75Z"/></g><g class="cls-2"><path class="cls-3" d="M16,404.23A42.23,42.23,0,0,1,3.36,434.57a4.28,4.28,0,0,1-3,1.24,1.94,1.94,0,0,1-.34,0V425.5a33.81,33.81,0,0,0,7.39-21.27A33.86,33.86,0,0,0,0,383V372.66a4.27,4.27,0,0,1,3.36,1.21A42.29,42.29,0,0,1,16,404.23Z"/><path class="cls-3" d="M15.47,361.77a4.3,4.3,0,0,0-6.05,6.1,50.85,50.85,0,0,1,15.14,36.36A50.82,50.82,0,0,1,9.42,440.58a4.29,4.29,0,0,0,3,7.34,4.27,4.27,0,0,0,3-1.25,59.25,59.25,0,0,0,17.67-42.44A59.31,59.31,0,0,0,15.47,361.77Z"/></g><g class="cls-2"><path class="cls-3" d="M187.6,344.13H92.85a13,13,0,0,0-13,13v66a13,13,0,0,0,13,13h30.69l-2.36,7.07H119a10.62,10.62,0,0,0-10.61,10.61v7.07a3.53,3.53,0,0,0,3.53,3.53h56.57a3.53,3.53,0,0,0,3.53-3.53v-7.07a10.61,10.61,0,0,0-10.6-10.61h-2.17L156.92,436H187.6a13,13,0,0,0,13-13v-66A13,13,0,0,0,187.6,344.13ZM161.44,450.18a3.54,3.54,0,0,1,3.53,3.54v3.53H115.48v-3.53a3.55,3.55,0,0,1,3.54-3.54Zm-32.81-7.07L131,436h18.47l2.36,7.07Zm64.86-20A5.89,5.89,0,0,1,187.6,429H92.85A5.9,5.9,0,0,1,87,423.08V421.9H193.49Zm0-8.25H87V357.09a5.9,5.9,0,0,1,5.89-5.89H187.6a5.89,5.89,0,0,1,5.89,5.89Z"/><path class="cls-3" d="M156.58,399.65a3.52,3.52,0,0,0,5,0l14.14-14.14a3.54,3.54,0,0,0,0-5l-14.14-14.14a3.54,3.54,0,0,0-5,5L168.22,383l-11.64,11.65A3.52,3.52,0,0,0,156.58,399.65Z"/><path class="cls-3" d="M118.87,399.65a3.53,3.53,0,0,0,5-5L112.23,383l11.64-11.64a3.54,3.54,0,0,0-5-5l-14.14,14.14a3.54,3.54,0,0,0,0,5Z"/><path class="cls-3" d="M132,407.58a3.64,3.64,0,0,0,1.12.18,3.53,3.53,0,0,0,3.35-2.42l14.14-42.42a3.54,3.54,0,0,0-6.71-2.24L129.8,403.11A3.54,3.54,0,0,0,132,407.58Z"/></g><g class="cls-2"><path class="cls-3" d="M380,406.14a5.66,5.66,0,0,0-7.82-2l-18.95,11-4.82,2.83v26.27l4.49,2.66c.16,0,.16.16.33.16l18.62,10.81a5.14,5.14,0,0,0,3.16,1,5.61,5.61,0,0,0,5.65-5.66V430.91l.17-22A4.37,4.37,0,0,0,380,406.14Z"/><path class="cls-3" d="M269.31,344.13a26.77,26.77,0,1,0,26.76,26.76A26.75,26.75,0,0,0,269.31,344.13Zm0,37.74a11.08,11.08,0,0,1-11-11,10.76,10.76,0,0,1,11-11,11,11,0,0,1,0,21.95Z"/><path class="cls-3" d="M337.13,399.15a31.73,31.73,0,0,1-14.29,3.5,31.05,31.05,0,0,1-17.29-5.16H286.6a31.08,31.08,0,0,1-17.29,5.16,29.79,29.79,0,0,1-14.3-3.5,13,13,0,0,0-6.48,11.14v40.57A13.51,13.51,0,0,0,262,464.32h68.33a13.51,13.51,0,0,0,13.46-13.46V410.29A13.51,13.51,0,0,0,337.13,399.15Z"/><path class="cls-3" d="M322.84,344.13a26.77,26.77,0,1,0,26.76,26.76A26.75,26.75,0,0,0,322.84,344.13Zm0,37.74a11.07,11.07,0,0,1-11-11,11,11,0,0,1,21.94,0A11,11,0,0,1,322.84,381.87Z"/></g><g class="cls-2"><path class="cls-3" d="M483.17,344.13c-37.56,0-68.38,30.55-68.38,68.11v32.05a12,12,0,0,0,12,12h4V416.25h-4a11.88,11.88,0,0,0-4,.73v-4.74c0-33.14,27.23-60.1,60.37-60.1s60.36,27,60.36,60.1V417a11.78,11.78,0,0,0-4-.73h-4v40.06h4a12,12,0,0,0,12-12V412.24C551.55,374.68,520.73,344.13,483.17,344.13Z"/><path class="cls-3" d="M450.85,408.23h-4a8,8,0,0,0-8,8v40.06a8,8,0,0,0,8,8h4a4,4,0,0,0,4-4V412.24A4,4,0,0,0,450.85,408.23Z"/><path class="cls-3" d="M519.5,408.23h-4a4,4,0,0,0-4,4v48.08a4,4,0,0,0,4,4h4a8,8,0,0,0,8-8V416.25A8,8,0,0,0,519.5,408.23Z"/></g><g class="cls-2"><path class="cls-3" d="M665.09,344.55a4.28,4.28,0,0,0-4.54.52l-41.76,33.4H598.84a8.61,8.61,0,0,0-8.59,8.59V421.4a8.59,8.59,0,0,0,8.59,8.58h19.95l41.75,33.41a4.31,4.31,0,0,0,2.69.93,4.22,4.22,0,0,0,1.86-.43,4.28,4.28,0,0,0,2.43-3.86V348.42A4.32,4.32,0,0,0,665.09,344.55Z"/><path class="cls-3" d="M689.25,373.87a4.3,4.3,0,0,0-6,6.11,34.25,34.25,0,0,1,0,48.49,4.29,4.29,0,0,0,6,6.1,42.83,42.83,0,0,0,0-60.7Z"/><path class="cls-3" d="M701.36,361.77a4.3,4.3,0,1,0-6.05,6.1,51.24,51.24,0,0,1,0,72.71,4.29,4.29,0,0,0,3,7.34,4.27,4.27,0,0,0,3-1.25,59.83,59.83,0,0,0,0-84.9Z"/></g><g class="cls-2"><path class="cls-3" d="M873.48,344.13H778.74a13,13,0,0,0-13,13v66a13,13,0,0,0,13,13h30.68l-2.35,7.07H804.9a10.61,10.61,0,0,0-10.6,10.61v7.07a3.53,3.53,0,0,0,3.53,3.53h56.56a3.53,3.53,0,0,0,3.54-3.53v-7.07a10.62,10.62,0,0,0-10.61-10.61h-2.16L842.8,436h30.68a13,13,0,0,0,13-13v-66A13,13,0,0,0,873.48,344.13ZM847.32,450.18a3.55,3.55,0,0,1,3.54,3.54v3.53H801.37v-3.53a3.54,3.54,0,0,1,3.53-3.54Zm-32.8-7.07,2.36-7.07h18.47l2.36,7.07Zm64.86-20a5.9,5.9,0,0,1-5.9,5.89H778.74a5.89,5.89,0,0,1-5.89-5.89V421.9H879.38Zm0-8.25H772.85V357.09a5.89,5.89,0,0,1,5.89-5.89h94.74a5.9,5.9,0,0,1,5.9,5.89Z"/><path class="cls-3" d="M842.47,399.65a3.52,3.52,0,0,0,5,0l14.14-14.14a3.54,3.54,0,0,0,0-5l-14.14-14.14a3.54,3.54,0,0,0-5,5L854.11,383l-11.64,11.65A3.52,3.52,0,0,0,842.47,399.65Z"/><path class="cls-3" d="M804.76,399.65a3.52,3.52,0,0,0,5,0,3.52,3.52,0,0,0,0-5L798.12,383l11.64-11.64a3.54,3.54,0,0,0-5-5l-14.14,14.14a3.54,3.54,0,0,0,0,5Z"/><path class="cls-3" d="M817.93,407.58a3.54,3.54,0,0,0,4.47-2.24l14.14-42.42a3.54,3.54,0,0,0-6.71-2.24l-14.14,42.43A3.53,3.53,0,0,0,817.93,407.58Z"/></g><g class="cls-2"><path class="cls-3" d="M1065.91,406.14a5.64,5.64,0,0,0-7.81-2l-18.95,11-4.82,2.83v26.27l4.48,2.66c.17,0,.17.16.34.16l18.62,10.81a5.14,5.14,0,0,0,3.16,1,5.61,5.61,0,0,0,5.65-5.66V430.91l.16-22A4.32,4.32,0,0,0,1065.91,406.14Z"/><path class="cls-3" d="M955.19,344.13A26.77,26.77,0,1,0,982,370.89,26.75,26.75,0,0,0,955.19,344.13Zm0,37.74a11.07,11.07,0,0,1-11-11,10.75,10.75,0,0,1,11-11,11,11,0,1,1,0,21.95Z"/><path class="cls-3" d="M1023,399.15a31.74,31.74,0,0,1-14.3,3.5,31.08,31.08,0,0,1-17.29-5.16H972.48a31,31,0,0,1-17.29,5.16,29.78,29.78,0,0,1-14.29-3.5,13,13,0,0,0-6.49,11.14v40.57a13.51,13.51,0,0,0,13.47,13.46h68.33a13.51,13.51,0,0,0,13.46-13.46V410.29A13.54,13.54,0,0,0,1023,399.15Z"/><path class="cls-3" d="M1008.72,344.13a26.77,26.77,0,1,0,26.77,26.76A26.75,26.75,0,0,0,1008.72,344.13Zm0,37.74a11.07,11.07,0,0,1-11-11,11,11,0,0,1,22,0A11,11,0,0,1,1008.72,381.87Z"/></g><g class="cls-2"><path class="cls-3" d="M1169.06,344.13c-37.56,0-68.38,30.55-68.38,68.11v32.05a12,12,0,0,0,12,12h4V416.25h-4a11.88,11.88,0,0,0-4,.73v-4.74c0-33.14,27.23-60.1,60.37-60.1s60.36,27,60.36,60.1V417a11.82,11.82,0,0,0-4-.73h-4v40.06h4a12,12,0,0,0,12-12V412.24C1237.43,374.68,1206.61,344.13,1169.06,344.13Z"/><path class="cls-3" d="M1136.74,408.23h-4a8,8,0,0,0-8,8v40.06a8,8,0,0,0,8,8h4a4,4,0,0,0,4-4V412.24A4,4,0,0,0,1136.74,408.23Z"/><path class="cls-3" d="M1205.38,408.23h-4a4,4,0,0,0-4,4v48.08a4,4,0,0,0,4,4h4a8,8,0,0,0,8-8V416.25A8,8,0,0,0,1205.38,408.23Z"/></g><g class="cls-2"><path class="cls-3" d="M1351,344.55a4.3,4.3,0,0,0-4.55.52l-41.75,33.4h-20a8.6,8.6,0,0,0-8.59,8.59V421.4a8.59,8.59,0,0,0,8.59,8.58h20l41.75,33.41a4.31,4.31,0,0,0,7-3.36V348.42A4.32,4.32,0,0,0,1351,344.55Z"/></g><g class="cls-2"><path class="cls-3" d="M60.66,557.24v32a12,12,0,0,1-12,12h-4V561.25h4a11.88,11.88,0,0,1,4,.73v-4.74c0-30.53-23.1-55.81-52.65-59.61v-8.06C34,493.41,60.66,522.29,60.66,557.24Z"/><path class="cls-3" d="M28.61,553.23h-4a4,4,0,0,0-4,4v48.08a4,4,0,0,0,4,4h4a8,8,0,0,0,8-8V561.25A8,8,0,0,0,28.61,553.23Z"/></g><g class="cls-2"><path class="cls-3" d="M174.2,489.55a4.28,4.28,0,0,0-4.54.52l-41.76,33.4H108a8.6,8.6,0,0,0-8.58,8.59V566.4A8.58,8.58,0,0,0,108,575h20l41.75,33.41a4.33,4.33,0,0,0,2.69.93,4.22,4.22,0,0,0,1.86-.43,4.27,4.27,0,0,0,2.43-3.86V493.42A4.3,4.3,0,0,0,174.2,489.55Z"/><path class="cls-3" d="M198.36,518.87a4.29,4.29,0,0,0-6,6.11,34.25,34.25,0,0,1,0,48.49,4.29,4.29,0,1,0,6,6.1,42.83,42.83,0,0,0,0-60.7Z"/><path class="cls-3" d="M210.47,506.77a4.3,4.3,0,0,0-6.05,6.1,51.22,51.22,0,0,1,0,72.71,4.29,4.29,0,0,0,3,7.34,4.27,4.27,0,0,0,3-1.25,59.83,59.83,0,0,0,0-84.9Z"/></g><g class="cls-2"><path class="cls-3" d="M382.6,489.13H287.85a13,13,0,0,0-13,13v66a13,13,0,0,0,13,13h30.69l-2.36,7.07H314a10.62,10.62,0,0,0-10.61,10.61v7.07a3.53,3.53,0,0,0,3.53,3.53h56.57a3.53,3.53,0,0,0,3.53-3.53v-7.07a10.61,10.61,0,0,0-10.6-10.61h-2.17L351.92,581H382.6a13,13,0,0,0,13-13v-66A13,13,0,0,0,382.6,489.13Zm-26.16,106a3.54,3.54,0,0,1,3.53,3.54v3.53H310.48v-3.53a3.55,3.55,0,0,1,3.54-3.54Zm-32.81-7.07L326,581h18.47l2.36,7.07Zm64.86-20A5.89,5.89,0,0,1,382.6,574H287.85a5.9,5.9,0,0,1-5.89-5.89V566.9H388.49Zm0-8.25H282V502.09a5.9,5.9,0,0,1,5.89-5.89H382.6a5.89,5.89,0,0,1,5.89,5.89Z"/><path class="cls-3" d="M351.58,544.65a3.52,3.52,0,0,0,5,0l14.14-14.14a3.54,3.54,0,0,0,0-5l-14.14-14.14a3.54,3.54,0,0,0-5,5L363.22,528l-11.64,11.65A3.52,3.52,0,0,0,351.58,544.65Z"/><path class="cls-3" d="M313.87,544.65a3.53,3.53,0,0,0,5-5L307.23,528l11.64-11.64a3.54,3.54,0,0,0-5-5l-14.14,14.14a3.54,3.54,0,0,0,0,5Z"/><path class="cls-3" d="M327,552.58a3.64,3.64,0,0,0,1.12.18,3.53,3.53,0,0,0,3.35-2.42l14.14-42.42a3.54,3.54,0,0,0-6.71-2.24L324.8,548.11A3.54,3.54,0,0,0,327,552.58Z"/></g><g class="cls-2"><path class="cls-3" d="M575,551.14a5.66,5.66,0,0,0-7.82-2l-19,11-4.82,2.83v26.27l4.49,2.66c.16,0,.16.16.33.16l18.62,10.81a5.14,5.14,0,0,0,3.16,1,5.61,5.61,0,0,0,5.65-5.66V575.91l.17-21.95A4.37,4.37,0,0,0,575,551.14Z"/><path class="cls-3" d="M464.31,489.13a26.77,26.77,0,1,0,26.76,26.76A26.75,26.75,0,0,0,464.31,489.13Zm0,37.74a11.08,11.08,0,0,1-11-11,10.76,10.76,0,0,1,11-11,11,11,0,0,1,0,21.95Z"/><path class="cls-3" d="M532.13,544.15a31.73,31.73,0,0,1-14.29,3.5,31.05,31.05,0,0,1-17.29-5.16H481.6a31.08,31.08,0,0,1-17.29,5.16,29.79,29.79,0,0,1-14.3-3.5,13,13,0,0,0-6.48,11.14v40.57A13.51,13.51,0,0,0,457,609.32h68.33a13.51,13.51,0,0,0,13.46-13.46V555.29A13.51,13.51,0,0,0,532.13,544.15Z"/><path class="cls-3" d="M517.84,489.13a26.77,26.77,0,1,0,26.76,26.76A26.75,26.75,0,0,0,517.84,489.13Zm0,37.74a11.07,11.07,0,0,1-11-11,11,11,0,1,1,21.94,0A11,11,0,0,1,517.84,526.87Z"/></g><g class="cls-2"><path class="cls-3" d="M678.17,489.13c-37.56,0-68.38,30.55-68.38,68.11v32a12,12,0,0,0,12,12h4V561.25h-4a11.88,11.88,0,0,0-4,.73v-4.74c0-33.14,27.23-60.1,60.37-60.1s60.36,27,60.36,60.1V562a11.78,11.78,0,0,0-4-.73h-4v40.06h4a12,12,0,0,0,12-12v-32C746.55,519.68,715.73,489.13,678.17,489.13Z"/><path class="cls-3" d="M645.85,553.23h-4a8,8,0,0,0-8,8v40.06a8,8,0,0,0,8,8h4a4,4,0,0,0,4-4V557.24A4,4,0,0,0,645.85,553.23Z"/><path class="cls-3" d="M714.5,553.23h-4a4,4,0,0,0-4,4v48.08a4,4,0,0,0,4,4h4a8,8,0,0,0,8-8V561.25A8,8,0,0,0,714.5,553.23Z"/></g><g class="cls-2"><path class="cls-3" d="M860.09,489.55a4.28,4.28,0,0,0-4.54.52l-41.76,33.4H793.84a8.61,8.61,0,0,0-8.59,8.59V566.4a8.59,8.59,0,0,0,8.59,8.58h19.95l41.75,33.41a4.31,4.31,0,0,0,2.69.93,4.22,4.22,0,0,0,1.86-.43,4.28,4.28,0,0,0,2.43-3.86V493.42A4.32,4.32,0,0,0,860.09,489.55Z"/><path class="cls-3" d="M884.25,518.87a4.3,4.3,0,0,0-6,6.11,34.25,34.25,0,0,1,0,48.49,4.29,4.29,0,0,0,6,6.1,42.83,42.83,0,0,0,0-60.7Z"/><path class="cls-3" d="M896.36,506.77a4.3,4.3,0,1,0-6.05,6.1,51.24,51.24,0,0,1,0,72.71,4.29,4.29,0,0,0,3,7.34,4.27,4.27,0,0,0,3-1.25,59.83,59.83,0,0,0,0-84.9Z"/></g><g class="cls-2"><path class="cls-3" d="M1068.48,489.13H973.74a13,13,0,0,0-13,13v66a13,13,0,0,0,13,13h30.68l-2.35,7.07H999.9a10.61,10.61,0,0,0-10.6,10.61v7.07a3.53,3.53,0,0,0,3.53,3.53h56.56a3.53,3.53,0,0,0,3.54-3.53v-7.07a10.62,10.62,0,0,0-10.61-10.61h-2.16L1037.8,581h30.68a13,13,0,0,0,13-13v-66A13,13,0,0,0,1068.48,489.13Zm-26.16,106a3.55,3.55,0,0,1,3.54,3.54v3.53H996.37v-3.53a3.54,3.54,0,0,1,3.53-3.54Zm-32.8-7.07,2.36-7.07h18.47l2.36,7.07Zm64.86-20a5.9,5.9,0,0,1-5.9,5.89H973.74a5.89,5.89,0,0,1-5.89-5.89V566.9h106.53Zm0-8.25H967.85V502.09a5.89,5.89,0,0,1,5.89-5.89h94.74a5.9,5.9,0,0,1,5.9,5.89Z"/><path class="cls-3" d="M1037.47,544.65a3.52,3.52,0,0,0,5,0l14.14-14.14a3.54,3.54,0,0,0,0-5l-14.14-14.14a3.54,3.54,0,0,0-5,5L1049.11,528l-11.64,11.65A3.52,3.52,0,0,0,1037.47,544.65Z"/><path class="cls-3" d="M999.76,544.65a3.52,3.52,0,0,0,5,0,3.52,3.52,0,0,0,0-5L993.12,528l11.64-11.64a3.54,3.54,0,0,0-5-5l-14.14,14.14a3.54,3.54,0,0,0,0,5Z"/><path class="cls-3" d="M1012.93,552.58a3.54,3.54,0,0,0,4.47-2.24l14.14-42.42a3.54,3.54,0,0,0-6.71-2.24l-14.14,42.43A3.53,3.53,0,0,0,1012.93,552.58Z"/></g><g class="cls-2"><path class="cls-3" d="M1260.91,551.14a5.64,5.64,0,0,0-7.81-2l-18.95,11-4.82,2.83v26.27l4.48,2.66c.17,0,.17.16.34.16l18.62,10.81a5.14,5.14,0,0,0,3.16,1,5.61,5.61,0,0,0,5.65-5.66V575.91l.16-21.95A4.32,4.32,0,0,0,1260.91,551.14Z"/><path class="cls-3" d="M1150.19,489.13A26.77,26.77,0,1,0,1177,515.89,26.75,26.75,0,0,0,1150.19,489.13Zm0,37.74a11.07,11.07,0,0,1-11-11,10.75,10.75,0,0,1,11-11,11,11,0,1,1,0,21.95Z"/><path class="cls-3" d="M1218,544.15a31.74,31.74,0,0,1-14.3,3.5,31.08,31.08,0,0,1-17.29-5.16h-19a31,31,0,0,1-17.29,5.16,29.78,29.78,0,0,1-14.29-3.5,13,13,0,0,0-6.49,11.14v40.57a13.51,13.51,0,0,0,13.47,13.46h68.33a13.51,13.51,0,0,0,13.46-13.46V555.29A13.54,13.54,0,0,0,1218,544.15Z"/><path class="cls-3" d="M1203.72,489.13a26.77,26.77,0,1,0,26.77,26.76A26.75,26.75,0,0,0,1203.72,489.13Zm0,37.74a11.07,11.07,0,0,1-11-11,11,11,0,0,1,22,0A11,11,0,0,1,1203.72,526.87Z"/></g><g class="cls-2"><path class="cls-3" d="M1366,489.16v8c-.64,0-1.29,0-1.94,0-33.14,0-60.37,27-60.37,60.1V562a11.88,11.88,0,0,1,4-.73h4v40.06h-4a12,12,0,0,1-12-12v-32c0-37.56,30.82-68.11,68.38-68.11C1364.71,489.13,1365.35,489.14,1366,489.16Z"/><path class="cls-3" d="M1331.74,553.23h-4a8,8,0,0,0-8,8v40.06a8,8,0,0,0,8,8h4a4,4,0,0,0,4-4V557.24A4,4,0,0,0,1331.74,553.23Z"/></g><g class="cls-2"><path class="cls-3" d="M8.36,663.87a4.29,4.29,0,0,0-6,6.11,33.8,33.8,0,0,1,10.06,24.25A33.76,33.76,0,0,1,2.33,718.47a4.29,4.29,0,1,0,6,6.1A42.23,42.23,0,0,0,21,694.23,42.29,42.29,0,0,0,8.36,663.87Z"/><path class="cls-3" d="M20.47,651.77a4.3,4.3,0,0,0-6,6.1,50.85,50.85,0,0,1,15.14,36.36,50.82,50.82,0,0,1-15.14,36.35,4.29,4.29,0,0,0,3,7.34,4.27,4.27,0,0,0,3-1.25,59.25,59.25,0,0,0,17.67-42.44A59.31,59.31,0,0,0,20.47,651.77Z"/></g><g class="cls-2"><path class="cls-3" d="M192.6,634.13H97.85a13,13,0,0,0-13,13v66a13,13,0,0,0,13,13h30.69l-2.36,7.07H124a10.62,10.62,0,0,0-10.61,10.61v7.07a3.53,3.53,0,0,0,3.53,3.53h56.57a3.53,3.53,0,0,0,3.53-3.53v-7.07a10.61,10.61,0,0,0-10.6-10.61h-2.17L161.92,726H192.6a13,13,0,0,0,13-13v-66A13,13,0,0,0,192.6,634.13Zm-26.16,106a3.54,3.54,0,0,1,3.53,3.54v3.53H120.48v-3.53a3.55,3.55,0,0,1,3.54-3.54Zm-32.81-7.07L136,726h18.47l2.36,7.07Zm64.86-20A5.89,5.89,0,0,1,192.6,719H97.85A5.9,5.9,0,0,1,92,713.08V711.9H198.49Zm0-8.25H92V647.09a5.9,5.9,0,0,1,5.89-5.89H192.6a5.89,5.89,0,0,1,5.89,5.89Z"/><path class="cls-3" d="M161.58,689.65a3.52,3.52,0,0,0,5,0l14.14-14.14a3.54,3.54,0,0,0,0-5l-14.14-14.14a3.54,3.54,0,0,0-5,5L173.22,673l-11.64,11.65A3.52,3.52,0,0,0,161.58,689.65Z"/><path class="cls-3" d="M123.87,689.65a3.53,3.53,0,0,0,5-5L117.23,673l11.64-11.64a3.54,3.54,0,0,0-5-5l-14.14,14.14a3.54,3.54,0,0,0,0,5Z"/><path class="cls-3" d="M137,697.58a3.64,3.64,0,0,0,1.12.18,3.53,3.53,0,0,0,3.35-2.42l14.14-42.42a3.54,3.54,0,0,0-6.71-2.24L134.8,693.11A3.54,3.54,0,0,0,137,697.58Z"/></g><g class="cls-2"><path class="cls-3" d="M385,696.14a5.66,5.66,0,0,0-7.82-2l-18.95,11-4.82,2.83v26.27l4.49,2.66c.16,0,.16.16.33.16l18.62,10.81a5.14,5.14,0,0,0,3.16,1,5.61,5.61,0,0,0,5.65-5.66V720.91l.17-21.95A4.37,4.37,0,0,0,385,696.14Z"/><path class="cls-3" d="M274.31,634.13a26.77,26.77,0,1,0,26.76,26.76A26.75,26.75,0,0,0,274.31,634.13Zm0,37.74a11.08,11.08,0,0,1-11-11,10.76,10.76,0,0,1,11-11,11,11,0,0,1,0,22Z"/><path class="cls-3" d="M342.13,689.15a31.73,31.73,0,0,1-14.29,3.5,31.05,31.05,0,0,1-17.29-5.16H291.6a31.08,31.08,0,0,1-17.29,5.16,29.79,29.79,0,0,1-14.3-3.5,13,13,0,0,0-6.48,11.14v40.57A13.51,13.51,0,0,0,267,754.32h68.33a13.51,13.51,0,0,0,13.46-13.46V700.29A13.51,13.51,0,0,0,342.13,689.15Z"/><path class="cls-3" d="M327.84,634.13a26.77,26.77,0,1,0,26.76,26.76A26.75,26.75,0,0,0,327.84,634.13Zm0,37.74a11.07,11.07,0,0,1-11-11,11,11,0,0,1,21.94,0A11,11,0,0,1,327.84,671.87Z"/></g><g class="cls-2"><path class="cls-3" d="M488.17,634.13c-37.56,0-68.38,30.55-68.38,68.11v32a12,12,0,0,0,12,12h4V706.25h-4a11.88,11.88,0,0,0-4,.73v-4.74c0-33.14,27.23-60.1,60.37-60.1s60.36,27,60.36,60.1V707a11.78,11.78,0,0,0-4-.73h-4v40.06h4a12,12,0,0,0,12-12v-32C556.55,664.68,525.73,634.13,488.17,634.13Z"/><path class="cls-3" d="M455.85,698.23h-4a8,8,0,0,0-8,8v40.06a8,8,0,0,0,8,8h4a4,4,0,0,0,4-4V702.24A4,4,0,0,0,455.85,698.23Z"/><path class="cls-3" d="M524.5,698.23h-4a4,4,0,0,0-4,4v48.08a4,4,0,0,0,4,4h4a8,8,0,0,0,8-8V706.25A8,8,0,0,0,524.5,698.23Z"/></g><g class="cls-2"><path class="cls-3" d="M670.09,634.55a4.28,4.28,0,0,0-4.54.52l-41.76,33.4H603.84a8.61,8.61,0,0,0-8.59,8.59V711.4a8.59,8.59,0,0,0,8.59,8.58h19.95l41.75,33.41a4.31,4.31,0,0,0,2.69.93,4.22,4.22,0,0,0,1.86-.43,4.28,4.28,0,0,0,2.43-3.86V638.42A4.32,4.32,0,0,0,670.09,634.55Z"/><path class="cls-3" d="M694.25,663.87a4.3,4.3,0,0,0-6,6.11,34.25,34.25,0,0,1,0,48.49,4.29,4.29,0,0,0,6,6.1,42.83,42.83,0,0,0,0-60.7Z"/><path class="cls-3" d="M706.36,651.77a4.3,4.3,0,1,0-6.05,6.1,51.24,51.24,0,0,1,0,72.71,4.29,4.29,0,0,0,3,7.34,4.27,4.27,0,0,0,3-1.25,59.83,59.83,0,0,0,0-84.9Z"/></g><g class="cls-2"><path class="cls-3" d="M878.48,634.13H783.74a13,13,0,0,0-13,13v66a13,13,0,0,0,13,13h30.68l-2.35,7.07H809.9a10.61,10.61,0,0,0-10.6,10.61v7.07a3.53,3.53,0,0,0,3.53,3.53h56.56a3.53,3.53,0,0,0,3.54-3.53v-7.07a10.62,10.62,0,0,0-10.61-10.61h-2.16L847.8,726h30.68a13,13,0,0,0,13-13v-66A13,13,0,0,0,878.48,634.13Zm-26.16,106a3.55,3.55,0,0,1,3.54,3.54v3.53H806.37v-3.53a3.54,3.54,0,0,1,3.53-3.54Zm-32.8-7.07,2.36-7.07h18.47l2.36,7.07Zm64.86-20a5.9,5.9,0,0,1-5.9,5.89H783.74a5.89,5.89,0,0,1-5.89-5.89V711.9H884.38Zm0-8.25H777.85V647.09a5.89,5.89,0,0,1,5.89-5.89h94.74a5.9,5.9,0,0,1,5.9,5.89Z"/><path class="cls-3" d="M847.47,689.65a3.52,3.52,0,0,0,5,0l14.14-14.14a3.54,3.54,0,0,0,0-5l-14.14-14.14a3.54,3.54,0,0,0-5,5L859.11,673l-11.64,11.65A3.52,3.52,0,0,0,847.47,689.65Z"/><path class="cls-3" d="M809.76,689.65a3.52,3.52,0,0,0,5,0,3.52,3.52,0,0,0,0-5L803.12,673l11.64-11.64a3.54,3.54,0,0,0-5-5l-14.14,14.14a3.54,3.54,0,0,0,0,5Z"/><path class="cls-3" d="M822.93,697.58a3.54,3.54,0,0,0,4.47-2.24l14.14-42.42a3.54,3.54,0,0,0-6.71-2.24l-14.14,42.43A3.53,3.53,0,0,0,822.93,697.58Z"/></g><g class="cls-2"><path class="cls-3" d="M1070.91,696.14a5.64,5.64,0,0,0-7.81-2l-18.95,11-4.82,2.83v26.27l4.48,2.66c.17,0,.17.16.34.16l18.62,10.81a5.14,5.14,0,0,0,3.16,1,5.61,5.61,0,0,0,5.65-5.66V720.91l.16-21.95A4.32,4.32,0,0,0,1070.91,696.14Z"/><path class="cls-3" d="M960.19,634.13A26.77,26.77,0,1,0,987,660.89,26.75,26.75,0,0,0,960.19,634.13Zm0,37.74a11.07,11.07,0,0,1-11-11,10.75,10.75,0,0,1,11-11,11,11,0,1,1,0,22Z"/><path class="cls-3" d="M1028,689.15a31.74,31.74,0,0,1-14.3,3.5,31.08,31.08,0,0,1-17.29-5.16H977.48a31,31,0,0,1-17.29,5.16,29.78,29.78,0,0,1-14.29-3.5,13,13,0,0,0-6.49,11.14v40.57a13.51,13.51,0,0,0,13.47,13.46h68.33a13.51,13.51,0,0,0,13.46-13.46V700.29A13.54,13.54,0,0,0,1028,689.15Z"/><path class="cls-3" d="M1013.72,634.13a26.77,26.77,0,1,0,26.77,26.76A26.75,26.75,0,0,0,1013.72,634.13Zm0,37.74a11.07,11.07,0,0,1-11-11,11,11,0,0,1,22,0A11,11,0,0,1,1013.72,671.87Z"/></g><g class="cls-2"><path class="cls-3" d="M1174.06,634.13c-37.56,0-68.38,30.55-68.38,68.11v32a12,12,0,0,0,12,12h4V706.25h-4a11.88,11.88,0,0,0-4,.73v-4.74c0-33.14,27.23-60.1,60.37-60.1s60.36,27,60.36,60.1V707a11.82,11.82,0,0,0-4-.73h-4v40.06h4a12,12,0,0,0,12-12v-32C1242.43,664.68,1211.61,634.13,1174.06,634.13Z"/><path class="cls-3" d="M1141.74,698.23h-4a8,8,0,0,0-8,8v40.06a8,8,0,0,0,8,8h4a4,4,0,0,0,4-4V702.24A4,4,0,0,0,1141.74,698.23Z"/><path class="cls-3" d="M1210.38,698.23h-4a4,4,0,0,0-4,4v48.08a4,4,0,0,0,4,4h4a8,8,0,0,0,8-8V706.25A8,8,0,0,0,1210.38,698.23Z"/></g><g class="cls-2"><path class="cls-3" d="M1356,634.55a4.3,4.3,0,0,0-4.55.52l-41.75,33.4h-20a8.6,8.6,0,0,0-8.59,8.59V711.4a8.59,8.59,0,0,0,8.59,8.58h20l41.75,33.41a4.31,4.31,0,0,0,7-3.36V638.42A4.32,4.32,0,0,0,1356,634.55Z"/></g></g></svg>