<svg id="Capa_2" data-name="Capa 2" xmlns="http://www.w3.org/2000/svg" viewBox="0 0 1366 244.66"><defs><style>.cls-1{opacity:0.1;}.cls-2{fill:#89d4e5;}.cls-3{fill:#a9ebff;}</style></defs><title>fondo-nosotros3</title><path class="cls-1" d="M295.36,768h4a47.54,47.54,0,0,1-7.33-10.86A48,48,0,0,0,245.51,721c-.65,0-1.3,0-1.94,0a48,48,0,0,0-12.13,2c-.64,0-1.29,0-1.94,0a47.89,47.89,0,0,1-28.66-9.48c-1.15-.87-2.28-1.79-3.35-2.75-.45-.78-.92-1.55-1.42-2.29a48,48,0,0,0-31.24-20.94h0a48.09,48.09,0,0,0-48.24,19.52,48.12,48.12,0,0,1-36.33,28.14,46.3,46.3,0,0,0-6.6-.46A48,48,0,0,0,28,768H295.36Z" transform="translate(0 -523.34)"/><path class="cls-1" d="M1366,725.31V768H382.72a48.14,48.14,0,0,0,3.47-4.34,47.92,47.92,0,0,1,44-28.75c1.06,0,2.09,0,3.13.1A48.28,48.28,0,0,0,458,714a48.08,48.08,0,0,1,55.92-37,46.78,46.78,0,0,1,7.91,2.22,48.14,48.14,0,0,1,27.38,26.3,47.13,47.13,0,0,1,3.27,11.72,48,48,0,0,0,11.62,16.56,44.34,44.34,0,0,0,4,3.34,47.69,47.69,0,0,0,13.26,7,65.19,65.19,0,0,0,15.82,5.7,48.21,48.21,0,0,0,34.18-5.3,48.37,48.37,0,0,1,11.85-9.63,47.79,47.79,0,0,1,24-6.4c.7,0,1.37,0,2.05,0h0a47.69,47.69,0,0,1,15,3.1h.06c.68,0,1.36.05,2.06.05A47.93,47.93,0,0,0,716,721.52a17.2,17.2,0,0,0,3.16-3.22,48.58,48.58,0,0,1,7-7.71,48,48,0,0,1,40.71-11.13,46.75,46.75,0,0,1,7.91,2.21,48.05,48.05,0,0,1,22,16.76h0a47.54,47.54,0,0,0,6.58,12.67v0a45.54,45.54,0,0,0,4.19,5,47.1,47.1,0,0,0,6.05,5.33h0a47.85,47.85,0,0,0,17,8c3.7.92,7.61.92,11.57,1.41a57.14,57.14,0,0,0,15,0,47.82,47.82,0,0,0,30.27-10.74h0a48,48,0,0,1,74.06-10.45h0a47.71,47.71,0,0,1,9.28,12c.3.51.57,1,.83,1.56v0a48.18,48.18,0,0,0,30.57,12.91h0q1.11.06,2.25.06a48,48,0,0,0,14-2.08h0l1,.06c.49,0,1,.07,1.46.12a47.69,47.69,0,0,0,8.66,1.66,46.63,46.63,0,0,0,4.75.24,47.89,47.89,0,0,0,31.75-12,48,48,0,0,1,31.18-20.34h0a45.47,45.47,0,0,0,5.38.3,47.57,47.57,0,0,0,8.59-.77h0a48.09,48.09,0,0,0,36.86-31.72A48.1,48.1,0,0,1,1194,672.43a46.57,46.57,0,0,0,11.72,3.26A48,48,0,0,0,1244,664.55a48.91,48.91,0,0,0,4.53-4.46,47.86,47.86,0,0,1,31.36-11.65,49,49,0,0,1,9,.83,49.57,49.57,0,0,1,7.92,2.22h0a48.07,48.07,0,0,1,29.45,32.36,48.25,48.25,0,0,0,13.55,27.3,48.07,48.07,0,0,0,4.42,3.91,46.85,46.85,0,0,0,8.14,5.16c.54.28,1.07.53,1.62.78h0a45.92,45.92,0,0,1,6.83,2h0c1,.37,2,.78,3,1.21h0C1364.56,724.58,1365.29,724.94,1366,725.31Z" transform="translate(0 -523.34)"/><path class="cls-2" d="M294.63,768h-280a48.12,48.12,0,0,1,39.61-38.89,49.72,49.72,0,0,1,7.67-.61,46.34,46.34,0,0,1,6.61.46,48,48,0,0,0,31.59-19.75,47.31,47.31,0,0,0,4.74-8.39,48.07,48.07,0,0,1,67.92-10.88q1.74,1.3,3.35,2.75a48.15,48.15,0,0,1,9.63,11.85c.85.76,1.72,1.48,2.62,2.18a48,48,0,0,0,29.4,10c.65,0,1.3,0,1.94,0a47.53,47.53,0,0,1,12.13-2.05c.64,0,1.29,0,1.94,0a47.82,47.82,0,0,1,28.6,9.44,48.22,48.22,0,0,1,14.53,17.42,47.39,47.39,0,0,1,3.41,9.25,48.16,48.16,0,0,0,13.77,16.84Z" transform="translate(0 -523.34)"/><path class="cls-2" d="M1366,727.46V768H364a48,48,0,0,0,10.45-10.75,49,49,0,0,1,4.74-8.39,48,48,0,0,1,39.27-20.36c1.05,0,2.09,0,3.12.11a48.25,48.25,0,0,0,24.65-21,48.06,48.06,0,0,1,91.22-8.45,47,47,0,0,1,3.27,11.72,48.12,48.12,0,0,0,27.39,26.3c.5.19,1,.38,1.51.55a65.83,65.83,0,0,0,15.82,5.7,48.48,48.48,0,0,0,10.22,1.09,47.86,47.86,0,0,0,24-6.4,47.86,47.86,0,0,1,35.81-16c.69,0,1.37,0,2.05,0h0a47.54,47.54,0,0,1,15,3.11h.05c.69,0,1.37,0,2.06,0a47.93,47.93,0,0,0,29.59-10.18,16.62,16.62,0,0,0,3.15-3.23,48.12,48.12,0,0,1,54.3-17.12,47.36,47.36,0,0,1,13.11,6.9A48.32,48.32,0,0,1,785,712h0a47.28,47.28,0,0,0,6.59,12.67v0a48.37,48.37,0,0,0,22,16.73h0a48.86,48.86,0,0,0,5.31,1.65c3.7.91,7.61.91,11.57,1.41a57.58,57.58,0,0,0,14.94,0,47.89,47.89,0,0,0,30.28-10.74h0a48,48,0,0,1,69.89-13.95,51.69,51.69,0,0,1,4.17,3.49v0a48.25,48.25,0,0,1,10.11,13.53v0a42.27,42.27,0,0,0,3.46,2.94,47.72,47.72,0,0,0,27.1,10h0c.74,0,1.49.05,2.25.05a47.64,47.64,0,0,0,14-2.08h0c.34,0,.67,0,1,.07l1.46.11a47.7,47.7,0,0,0,8.66,1.67,46.64,46.64,0,0,0,4.75.23,47.8,47.8,0,0,0,31.74-12,48.6,48.6,0,0,1,8-9.1,47.89,47.89,0,0,1,23.17-11.23h0a47.7,47.7,0,0,0,5.38.3,48.66,48.66,0,0,0,8.59-.77h0a48.14,48.14,0,0,0,36.86-31.73A48.1,48.1,0,0,1,1182.25,666a47,47,0,0,0,11.72,3.27,48.09,48.09,0,0,0,38-10.92,3.11,3.11,0,0,0,.28-.23,48.89,48.89,0,0,0,4.53-4.46,48.13,48.13,0,0,1,46.87-9.08,48.35,48.35,0,0,1,13.12,6.89h0a48.08,48.08,0,0,1,17.71,26,48.18,48.18,0,0,0,17.06,30.48,47.71,47.71,0,0,0,10.66,6.66h0c.67.14,1.33.3,2,.47,1.17.31,2.34.65,3.47,1,1.48.5,3,1.08,4.37,1.72h0a48.29,48.29,0,0,1,8.75,5.17h0A47.44,47.44,0,0,1,1366,727.46Z" transform="translate(0 -523.34)"/><path class="cls-3" d="M295.36,768l-1.28-.42a48.16,48.16,0,0,1-27.64-24.31,48.07,48.07,0,0,0-46.55-36.12c-.65,0-1.3,0-1.94.05a47.6,47.6,0,0,0-12.13,2c-.64,0-1.29,0-1.94,0a47.86,47.86,0,0,1-7.81-.64,47.26,47.26,0,0,1-7.71-1.93,48.19,48.19,0,0,1-16.49-9.65,48.61,48.61,0,0,0-7-9.36h0c-.82-.86-1.69-1.69-2.58-2.49s-1.72-1.49-2.62-2.18A48,48,0,0,0,91,693.35a47.31,47.31,0,0,1-4.74,8.39,48,48,0,0,1-31.59,19.75A46.3,46.3,0,0,0,48,721,48,48,0,0,0,0,768H295.36Z" transform="translate(0 -523.34)"/><path class="cls-3" d="M1366,748v12.09a45.89,45.89,0,0,1-1.67,7.89H335.49a48,48,0,0,0,25.08-18.22,47.31,47.31,0,0,1,4.74-8.39A47.93,47.93,0,0,1,404.57,721c1.06,0,2.09,0,3.13.11a48.3,48.3,0,0,0,24.65-21,48,48,0,0,1,76.32-27.79,46.46,46.46,0,0,1,5.22,4.69,47.78,47.78,0,0,1,9.67,14.64,47.21,47.21,0,0,1,3.27,11.73,48.12,48.12,0,0,0,28.76,26.79l.15,0a52.21,52.21,0,0,0,8.33,3.59,68.81,68.81,0,0,0,7.49,2.11,48.21,48.21,0,0,0,34.18-5.3A48.37,48.37,0,0,1,617.59,721a47.79,47.79,0,0,1,24-6.39c.7,0,1.37,0,2.05,0h0a47.69,47.69,0,0,1,15,3.1s0,0,0,0h0c.68,0,1.36,0,2.06,0a47.87,47.87,0,0,0,29.58-10.19,16.91,16.91,0,0,0,3.16-3.22,48.58,48.58,0,0,1,7-7.71,48.07,48.07,0,0,1,61.13-1.94,49.15,49.15,0,0,1,5.2,4.69,47.43,47.43,0,0,1,4.28,5.09h0a47.54,47.54,0,0,0,6.58,12.67v0a48.18,48.18,0,0,0,23.38,17.23c1.28.44,2.59.82,3.92,1.15a23.67,23.67,0,0,0,2.51.49c2.93.45,6,.54,9.06.92a57.14,57.14,0,0,0,15,0,47.82,47.82,0,0,0,30.27-10.74h0a48,48,0,0,1,70.64-13.37q1.77,1.4,3.42,2.92h0c.61.57,1.2,1.16,1.76,1.75A47.56,47.56,0,0,1,946,729.39v0a48.07,48.07,0,0,0,24.78,12.3,49.77,49.77,0,0,0,5.79.62h0c.75,0,1.49,0,2.25,0a48,48,0,0,0,14-2.08h0l1,.06c.49,0,1,.08,1.46.12a47.7,47.7,0,0,0,8.66,1.67,46.64,46.64,0,0,0,4.75.23,47.89,47.89,0,0,0,31.75-12,48.05,48.05,0,0,1,31.18-20.33h0a47.7,47.7,0,0,0,5.38.3,48.49,48.49,0,0,0,8.59-.77h0a48.12,48.12,0,0,0,36.86-31.73,48.1,48.1,0,0,1,45.82-19.31,47,47,0,0,0,11.72,3.27,48.12,48.12,0,0,0,38.31-11.15,48.91,48.91,0,0,0,4.53-4.46A48,48,0,0,1,1300.64,670a47.56,47.56,0,0,0,1.24,6,48.09,48.09,0,0,0,26.49,31.13h0c1.08.24,2.14.5,3.2.81a48.79,48.79,0,0,1,6.61,2.43h0c.54.24,1.08.5,1.61.78a46.1,46.1,0,0,1,7.89,5,46.7,46.7,0,0,1,4.67,4.11A47.88,47.88,0,0,1,1366,748Z" transform="translate(0 -523.34)"/><circle class="cls-1" cx="1191.76" cy="64.83" r="52.6"/><circle class="cls-2" cx="1186.66" cy="58.72" r="52.6"/><circle class="cls-3" cx="1179.53" cy="52.6" r="52.6"/></svg>