<svg id="Capa_1" data-name="Capa 1" xmlns="http://www.w3.org/2000/svg" viewBox="0 0 1242 2208.44"><defs><style>.cls-1{opacity:0.1;}.cls-2{fill:#e2942d;}.cls-3{fill:#f3a734;}</style></defs><title>Sin título-4</title><g class="cls-1"><path d="M43.44,1610.71H1242v369.12q-4.55,5.28-9.53,10.17l-1.3,1.27a169.69,169.69,0,0,1-235.34,0c-.25-.25-.47-.45-.71-.67l-.63-.6c-22.19-21.37-50.6-34.5-80.23-37.2a124.43,124.43,0,0,0-46,4.27,170.5,170.5,0,0,1-46.92,6.55,169.71,169.71,0,0,1-103.6-35.25,14.08,14.08,0,0,0-20.3,3.2,13.87,13.87,0,0,0-2.45,8v.4a169.66,169.66,0,0,1-7.51,50.06c-.12.43-.26.85-.39,1.27a169.88,169.88,0,0,1-161.9,118.45c-13.41,0-25.34-4.77-36.35-12h-.05c-37.19-24.34-64-76.33-103.8-65.67-.69.16-1.4.36-2.06.58-1.89.6.13,4,.13,6a169.14,169.14,0,0,1-11.86,62.45c-.06.24-.2.49-.26.71a169.78,169.78,0,0,1-283.51,50.79,168.77,168.77,0,0,1-43.95-114,170.38,170.38,0,0,1,5.68-43.73,3,3,0,0,0,.11-.78,2.89,2.89,0,0,0-2.88-2.88A2.88,2.88,0,0,1,44,1990a2.94,2.94,0,0,1-.51-1.66Z"/></g><path class="cls-2" d="M1242,1610.71v341.91a170.62,170.62,0,0,1-22.69,26.81q-5.79,5.57-12.08,10.57a169.08,169.08,0,0,1-105.58,36.8,153,153,0,0,1-15.79-.76,168.94,168.94,0,0,1-89.77-36q-6.3-5-12.1-10.57c-.24-.24-.49-.44-.71-.69-29-28.27-68.8-42.33-108.15-37.35h0a124.89,124.89,0,0,0-18.72,3.84,170.36,170.36,0,0,1-46.9,6.55c-5.38,0-10.66-.24-15.92-.75a168.84,168.84,0,0,1-87.7-34.51,14.12,14.12,0,0,0-22.06,6.79,14.34,14.34,0,0,0-.68,4.38v.4a169.75,169.75,0,0,1-7.89,51.34q-1.69,5.37-3.75,10.57a169.84,169.84,0,0,1-158.14,107.89,54.39,54.39,0,0,1-11.53-1.25c-52.17-10.81-81.46-91.58-130.74-75.84-.87.27-.91,1.18-.71,2.25a26.25,26.25,0,0,1,.82,3.75,169.19,169.19,0,0,1-11.83,62.47c-.09.25-.2.47-.29.71A169.88,169.88,0,0,1,201.38,2196.6c-5.33,0-10.59-.24-15.79-.75A169.9,169.9,0,0,1,35.59,1990c.51-2.32,1.07-4.63,1.68-6.91a2.62,2.62,0,0,0,.13-.79,2.89,2.89,0,0,0-2.89-2.87,2.93,2.93,0,0,1-2.93-2.93V1610.71Z"/><path class="cls-3" d="M1242,1610.71V1848.4q-1.37-2.16-2.66-4.37c.35,4.31.51,8.59.51,13a169.31,169.31,0,0,1-52.12,122.41c-3.87,3.71-7.91,7.25-12.11,10.57a168.9,168.9,0,0,1-89.76,36,153,153,0,0,1-15.79.76,167.05,167.05,0,0,1-22.72-1.53A168.79,168.79,0,0,1,964.49,1990q-6.3-5-12.1-10.57c-.22-.24-.47-.44-.71-.69a136.92,136.92,0,0,0-37.42-25.94,131.75,131.75,0,0,0-39.13-11.41h0a125.38,125.38,0,0,0-50.3,3.84,165.52,165.52,0,0,1-31.24,5.8c-5.18.51-10.38.75-15.66.75a170.46,170.46,0,0,1-80.48-20.21c-4.67-2.53-9.2-5.31-13.62-8.26-3.24-2.13-6.44-4.42-9.52-6.79a14.11,14.11,0,0,0-22.74,11.17v.4a169.75,169.75,0,0,1-7.91,51.34q-1.7,5.37-3.75,10.57a169.75,169.75,0,0,1-138.07,106.64c-4.26.56-8.62.91-13,1.09h-.05c-2.33.11-4.66.16-7,.16-40.49,0-67.25-43.33-96.79-65.83a77,77,0,0,0-14.61-9c-9.59-4.42-19.74-5.8-30.89-2.25-1.89.6.13,4,.13,6a169.21,169.21,0,0,1-11.86,62.47c-.06.25-.2.47-.26.71a169.94,169.94,0,0,1-141.87,105.87c-5.22.51-10.48.75-15.81.75a171.87,171.87,0,0,1-22.59-1.51A169.92,169.92,0,0,1,4,1990c.51-2.32,1.07-4.63,1.68-6.91a2.6,2.6,0,0,0,.11-.79A2.9,2.9,0,0,0,3,1979.43a3,3,0,0,1-3-2.93V1610.71Z"/><rect class="cls-3" width="1242" height="1675"/></svg>