<?xml version="1.0" encoding="utf-8"?>
<!-- Generator: Adobe Illustrator 23.0.3, SVG Export Plug-In . SVG Version: 6.00 Build 0)  -->
<svg version="1.1" id="Capa_1" xmlns="http://www.w3.org/2000/svg" xmlns:xlink="http://www.w3.org/1999/xlink" x="0px" y="0px"
	 viewBox="0 0 1366 768" style="enable-background:new 0 0 1366 768;" xml:space="preserve">
<style type="text/css">
	.st0{opacity:0.1;}
	.st1{fill:#E28C24;}
	.st2{fill:#EF9F37;}
</style>
<g class="st0">
	<path d="M1366,13v684c-10.1,3.4-18.4,11.2-22.7,21.4c-9.1,21.5-30.4,36.6-55.3,36.6c-19.9,0-37.5-9.7-48.4-24.6
		c-0.4-0.5-0.8-1.1-1.2-1.7c-3.2-4.7-5.7-9.8-7.5-15.3c-1.6-5-4.6-9.2-8.4-12.3c-1.4-1.1-2.9-2.1-4.5-3c-3.8-2-8.1-3.1-12.6-3.1
		c-4.5,0-8.8,1.5-12.2,4.2c-3.4,2.6-5.9,6.4-7.1,10.8c-6.6,25.9-30.1,45-58.1,45c-19.9,0-37.5-9.7-48.4-24.6
		c-0.4-0.5-0.8-1.1-1.2-1.7c-2.3-3.3-4.2-6.9-5.8-10.7c-2.2-5.2-5.4-9.8-9.4-13.4c-1.4-1.3-2.9-2.4-4.5-3.5
		c-5.9-3.9-12.9-6.1-20.3-6.1H763.8c-15.9,0-30.4,9.4-36.8,24c-9.3,21.2-30.4,36-55,36c-19.9,0-37.5-9.7-48.5-24.6
		c-0.4-0.5-0.8-1.1-1.2-1.6c-5.8-8.6-9.5-18.7-10.2-29.7c-0.2-2.3-2-4.1-4.3-4.1c-0.3,0.9-0.7,1.7-1.1,2.5c-0.9,1.9-1.8,3.8-2.9,5.7
		c-4.4,7.6-10.5,14.2-17.7,19.2c-9.7,6.7-21.5,10.7-34.1,10.7c-19.9,0-37.5-9.7-48.5-24.6c-0.4-0.5-0.8-1.1-1.2-1.7
		c-2.5-3.6-4.6-7.6-6.2-11.7c-0.8,0-1.6,0.2-2.3,0.6c-0.3,0.2-0.6,0.4-0.8,0.6c-0.2,0.1-0.3,0.3-0.5,0.5c-0.6,0.7-1,1.5-1.2,2.5
		C486.9,727.9,462,750,432,750c-19.9,0-37.5-9.7-48.4-24.6c-0.4-0.5-0.8-1.1-1.2-1.7c-5.7-8.3-9.3-18.2-10.2-28.8H372
		c0,4-0.4,7.9-1.1,11.7c-0.2,1.2-0.5,2.4-0.8,3.6c-6.7,25.8-30.2,44.8-58,44.8c-19.9,0-37.5-9.7-48.4-24.5c0,0,0,0,0,0
		c-0.4-0.5-0.8-1.1-1.2-1.7c-6.6-9.6-10.4-21.2-10.4-33.8h-0.1c-2.1,0-4,1-5.1,2.7c-0.2,0.3-0.4,0.6-0.5,0.9
		c-0.7,1.6-1.5,3.1-2.4,4.5C233.5,721,214.1,733,192,733c-19.9,0-37.5-9.7-48.4-24.6c-0.4-0.5-0.8-1.1-1.1-1.6c0,0,0,0,0,0
		c-1.8-2.6-3.3-5.3-4.7-8.1c-0.8-1.8-2.4-3-4.2-3.5c-0.5-0.1-1-0.2-1.5-0.2H132c0,0.3,0,0.7,0,1c-0.5,33.6-28.7,60.5-62.7,59
		c-18.7-0.8-35-10.3-45.4-24.5c-0.4-0.5-0.8-1.1-1.1-1.6c0,0,0,0,0,0C16,718.9,12,706.9,12,694.1V13H1366z"/>
</g>
<g>
	<path class="st1" d="M1366,6v682.5c-12.7,2.1-23.6,10.7-28.7,22.9c-9.1,21.5-30.4,36.6-55.3,36.6c-16.6,0-31.6-6.7-42.4-17.6
		c-1-1-2-2-2.9-3.1c-5.2-6-9.3-13.1-11.8-20.9c-0.6-1.9-1.4-3.7-2.4-5.3c-1.9-3.2-4.4-5.9-7.3-8c-4.5-3.2-10-5.1-15.8-5.1
		c-4.5,0-8.8,1.5-12.2,4.2c-3.4,2.6-5.9,6.4-7.1,10.8c-6.6,25.9-30.1,45-58.1,45c-16.6,0-31.6-6.7-42.4-17.6c-1-1-2-2-2.9-3.1
		c-4.2-4.8-7.6-10.3-10-16.2c-1-2.3-2.1-4.4-3.4-6.4c-2.2-3.3-4.9-6.2-7.9-8.7c-5.2-4.1-11.5-6.8-18.2-7.7c-1.5-0.2-3-0.3-4.6-0.3
		H757.8c-15.9,0-30.4,9.4-36.8,24c-9.3,21.2-30.4,36-55,36c-16.6,0-31.6-6.7-42.5-17.6c-1-1-2-2-2.9-3.1
		c-7.2-8.2-12.1-18.5-13.9-29.8c-0.3-1.8-0.5-3.6-0.6-5.5c-0.2-2.3-2-4.1-4.3-4.1c-0.4,0.9-0.8,1.9-1.2,2.8
		c-4.5,9.9-11.6,18.4-20.5,24.6c-9.7,6.7-21.5,10.7-34.1,10.7c-16.6,0-31.6-6.7-42.5-17.6c-1-1-2-2-2.9-3.1c-2.6-3-4.9-6.2-6.9-9.7
		c-1.4-2.4-2.6-5-3.7-7.6c-1,0-2,0.3-2.8,0.8c-0.1,0.1-0.3,0.2-0.4,0.3c-0.9,0.7-1.5,1.8-1.7,3C480.9,720.9,456,743,426,743
		c-16.6,0-31.6-6.7-42.4-17.6c-1-1-2-2-2.9-3.1c-4-4.7-7.4-9.9-9.8-15.7c-2.5-5.8-4.1-12.1-4.6-18.7H366c0,4.2-0.4,8.4-1.3,12.3
		C359,727.6,334.9,748,306,748c-16.6,0-31.5-6.7-42.4-17.5c0,0,0,0,0,0c-1-1-2-2-2.9-3.1c-7.1-8.2-12.1-18.4-13.9-29.6
		c-0.5-3.2-0.8-6.4-0.8-9.7h-0.1c-2.2,0-4.1,1.1-5.3,2.9c-0.1,0.2-0.3,0.5-0.4,0.7C230.6,712,210,726,186,726
		c-16.6,0-31.6-6.7-42.4-17.6c-1-1-2-2-2.9-3.1c-2.7-3.1-5.1-6.5-7.1-10.1c-0.7-1.2-1.3-2.3-1.8-3.5c-0.9-1.9-2.7-3.3-4.8-3.6
		c-0.3-0.1-0.6-0.1-0.9-0.1H126c0,34-28.3,61.5-62.7,59.9c-15.4-0.7-29.2-7.3-39.4-17.5c-1-1-1.9-2-2.8-3
		C11.7,716.6,6,702.5,6,687.1V6H1366z"/>
</g>
<g>
	<path class="st2" d="M1366,0v682h-0.1c-15.2,0-28.7,9.3-34.6,23.4c-9.1,21.5-30.4,36.6-55.3,36.6c-14.2,0-27.3-5-37.6-13.2
		c-0.6-0.5-1.1-0.9-1.7-1.4c-8.2-7.1-14.4-16.3-17.8-26.9c-0.3-0.8-0.5-1.6-0.9-2.3c-0.8-1.8-1.7-3.5-2.9-5.1
		c-4.9-6.8-13-11.1-21.8-11.1c-4.5,0-8.8,1.5-12.2,4.2c-3.4,2.6-5.9,6.4-7.1,10.8c-6.6,25.9-30.1,45-58.1,45
		c-14.2,0-27.3-5-37.6-13.3c-0.6-0.5-1.2-1-1.7-1.5c-6.9-6-12.5-13.6-16-22.2c-0.6-1.4-1.2-2.7-1.9-3.9c-1-1.8-2.2-3.6-3.5-5.2
		c-4.7-5.9-11-10.2-18.2-12.4c-3.4-1-6.9-1.6-10.6-1.6H751.8c-15.9,0-30.4,9.4-36.8,24c-9.3,21.2-30.4,36-55,36
		c-14.2,0-27.3-5-37.6-13.2c-0.6-0.5-1.2-1-1.7-1.5c-7.4-6.5-13.3-14.7-16.8-24.1c-1.5-4-2.6-8.1-3.2-12.4c-0.2-1.5-0.4-3.1-0.5-4.7
		c-0.2-2.3-2-4.1-4.3-4.1c-4.4,11.1-12,20.6-21.7,27.3c-9.7,6.7-21.5,10.7-34.1,10.7c-14.2,0-27.3-5-37.6-13.3
		c-0.6-0.5-1.1-0.9-1.7-1.4c-3-2.6-5.8-5.5-8.2-8.7c-1.9-2.5-3.6-5.1-5.1-7.8c-1.2-2.2-2.3-4.5-3.2-6.8c-1.2,0-2.3,0.4-3.2,1.2
		c-0.9,0.7-1.5,1.8-1.7,3C474.9,714.9,450,737,420,737c-14.2,0-27.3-5-37.6-13.2c-0.6-0.5-1.2-0.9-1.7-1.4
		c-4.1-3.5-7.6-7.6-10.6-12.1c-2.1-3.1-3.9-6.4-5.3-9.9c-2.4-5.7-4-11.9-4.5-18.3H360c0,33.1-26.9,60-60,60
		c-14.2,0-27.3-5-37.6-13.2c-0.6-0.5-1.2-0.9-1.7-1.4c-7.4-6.5-13.3-14.7-16.8-24.1c-1.5-3.9-2.6-8-3.2-12.3
		c-0.4-2.9-0.7-5.9-0.7-8.9h-0.1c-2.4,0-4.6,1.4-5.7,3.6C224.6,706,204,720,180,720c-14.2,0-27.3-5-37.6-13.2c0,0,0,0,0,0
		c-0.6-0.5-1.2-1-1.7-1.5c-3.2-2.8-6.1-5.9-8.7-9.3c-1.9-2.5-3.6-5.1-5-7.9c-0.4-0.8-0.8-1.6-1.2-2.4c-1-2.2-3.2-3.6-5.7-3.6H120
		c0,34-28.3,61.5-62.7,59.9c-13.1-0.6-25-5.4-34.5-13.1c0,0,0,0,0,0c-0.6-0.4-1.1-0.9-1.7-1.4C8.1,716.2,0,699.5,0,681.1V0H1366z"/>
</g>
</svg>
