<svg id="Capa_1" data-name="Capa 1" xmlns="http://www.w3.org/2000/svg" viewBox="0 0 359 768"><defs><style>.cls-1{fill:#b79e7d;}.cls-2{opacity:0.1;}.cls-3{fill:#e2942d;}.cls-4{fill:#f3a734;}</style></defs><title>fondoMenu2</title><path class="cls-1" d="M232,767.71V768h-5A43.45,43.45,0,0,0,232,767.71Z" transform="translate(0 0)"/><g class="cls-2"><path d="M314.33,97.49c-2.7,10.07,10.47,16.87,16.63,26.29h0a16.62,16.62,0,0,1,3,9.21,43,43,0,0,1-43,43h-.1a3.5,3.5,0,0,0-2,.62,3.57,3.57,0,0,0-.81,5.14A43,43,0,0,1,297,208a43.1,43.1,0,0,1-1.66,11.88,31.5,31.5,0,0,0-1.08,11.66A33.86,33.86,0,0,0,303.83,252l.17.18a43,43,0,0,1-25.07,72.39A43,43,0,0,1,273,325q-.87,0-1.71,0c-.53,0-1.05-.06-1.58-.1a42.34,42.34,0,0,1,7.18,5.29,43,43,0,0,1,10.73,15.1h0a43.11,43.11,0,0,1-.69,35,25.44,25.44,0,0,0-2.43,11.65,23.68,23.68,0,0,0,5.4,14.51,22.18,22.18,0,0,0,3.19,3.16c.6.49,1.19,1,1.77,1.52A43,43,0,0,1,304,422.86c.59,1.1,1.12,2.23,1.61,3.38a43,43,0,0,1-8.07,46,19.23,19.23,0,0,0-5.12,12.86,20.51,20.51,0,0,0,3.76,12.17,43,43,0,0,1-14.39,62.39l-1.28.68a.72.72,0,0,0,.21,1.36,42.68,42.68,0,0,1,21.2,10.5c.72.64,1.41,1.31,2.08,2a42.52,42.52,0,0,1,8.61,13,41.44,41.44,0,0,1,2,5.75,42.94,42.94,0,0,1-40.87,54H273c.34.24.67.49,1,.75l.9.7c.38.3.75.61,1.12.93l.63.56.24.22.23.2c.63.58,1.63,1.57,2.22,2.19l.23.25q.85.91,1.65,1.89c.42.51.82,1,1.22,1.55l.11.15c.3.4.59.8.87,1.22l.06.08c.29.43.57.86.85,1.3l.05.06.14.23.05.08.65,1.09.42.74c.14.24.27.49.4.74l.39.76c.13.25.25.51.37.76.29.61.57,1.22.82,1.84.19.43.36.86.53,1.29l.3.8.28.81c.18.54.36,1.09.52,1.64.08.27.16.55.23.82s.15.55.22.83l.21.87c0,.27.11.54.17.81a.14.14,0,0,1,0,.11c.09.39.17.78.23,1.18a.59.59,0,0,1,0,.13l0,.12.06.37s0,0,0,.08,0,.08,0,.12c.09.53.16,1.05.22,1.58,0,.27.07.55.09.82s.05.49.07.74c0,.58.09,1.16.11,1.74v.07c0,.24,0,.48,0,.72s0,.71,0,1.06a42.8,42.8,0,0,1-8.82,26.1A45.23,45.23,0,0,0,273,735.82V736a42.87,42.87,0,0,1-14.28,32H3V11.74A.74.74,0,0,1,3.74,11H303.26a.74.74,0,0,1,.74.74.73.73,0,0,0,.73.73.69.69,0,0,0,.2,0A43,43,0,0,1,332,93.93l-.18.07A42.85,42.85,0,0,1,316,97c-.51,0-1.37-.51-1.52,0A5.08,5.08,0,0,0,314.33,97.49Z" transform="translate(0 0)"/></g><path class="cls-3" d="M311.48,94c-4,12.48,16.47,19.9,19.21,33.11A14,14,0,0,1,331,130a43,43,0,0,1-43,43h-.1a3.68,3.68,0,0,0-1.11.17,3.58,3.58,0,0,0-1.72,5.59A42.74,42.74,0,0,1,293.81,201c.13,1.33.19,2.67.19,4a43.1,43.1,0,0,1-1.66,11.88,31.39,31.39,0,0,0-1,4.74h0A33.41,33.41,0,0,0,300.83,249l.17.18A42.88,42.88,0,0,1,312.81,275c.13,1.32.19,2.65.19,4a43,43,0,0,1-36.67,42.54A44,44,0,0,1,270,322c-1.11,0-2.2,0-3.29-.13a40.88,40.88,0,0,1,4.58,3.1,43.07,43.07,0,0,1,16.52,30c.13,1.32.19,2.65.19,4a42.87,42.87,0,0,1-4.07,18.29,26,26,0,0,0-2.13,6.87,23.87,23.87,0,0,0,8.1,22.29l.19.16A42.87,42.87,0,0,1,305.81,436c.13,1.32.19,2.65.19,4a42.91,42.91,0,0,1-11.46,29.23,19,19,0,0,0-4.72,9.23,20.39,20.39,0,0,0,3.36,15.8A42.55,42.55,0,0,1,300.81,515c.13,1.32.19,2.66.19,4a42.91,42.91,0,0,1-16.19,33.62,42.32,42.32,0,0,1-7.3,4.71.72.72,0,0,0,.21,1.36,37,37,0,0,1,4.07,1A42.78,42.78,0,0,1,301,571.2c.31.32.62.65.92,1A42.72,42.72,0,0,1,312.25,593c.25,1.31.44,2.65.56,4s.19,2.65.19,4a43,43,0,0,1-35.12,42.28A43.5,43.5,0,0,1,270,644c.34.24.67.49,1,.75l.9.7c.38.3.75.61,1.12.93l.63.56.06,0,.41.37c.63.58,1.63,1.57,2.22,2.19l.23.25.32.36c.46.49.9,1,1.33,1.53s.82,1,1.22,1.55l.11.15c.3.4.59.8.87,1.22l.06.08c.29.43.57.86.85,1.3l.05.06.14.23.05.08.65,1.09.42.74c.14.24.27.49.4.74l.39.76c.13.25.25.51.37.76.49,1,.94,2.06,1.35,3.13l.3.8.28.81c.18.54.36,1.09.52,1.64.08.27.16.55.23.82s.15.55.22.83l.21.87c0,.27.11.54.17.81a.14.14,0,0,1,0,.11c.09.39.17.78.23,1.18a.59.59,0,0,1,0,.13l0,.12.06.37s0,0,0,.08,0,.08,0,.12c.09.53.16,1.05.22,1.58,0,.27.07.55.09.82l0,.33c0,.14,0,.27,0,.41,0,.58.09,1.16.11,1.74v.07c0,.24,0,.48,0,.72s0,.71,0,1.06a42.8,42.8,0,0,1-8.82,26.1A45.23,45.23,0,0,0,270,732.82V733a43,43,0,0,1-18,35H0V8.74A.74.74,0,0,1,.74,8H300.26a.74.74,0,0,1,.74.74.73.73,0,0,0,.73.73.69.69,0,0,0,.2,0A43,43,0,0,1,355.81,47c.13,1.32.19,2.65.19,4a43,43,0,0,1-27,39.93l-.18.07A42.85,42.85,0,0,1,313,94a6.06,6.06,0,0,1-.95-.21C311.78,93.74,311.55,93.75,311.48,94Z" transform="translate(0 0)"/><path class="cls-4" d="M356,43c0,1.35-.06,2.68-.19,4A43,43,0,0,1,329,82.93l-.18.07A42.85,42.85,0,0,1,313,86c-.51,0-1.37-.51-1.52,0a10.41,10.41,0,0,0,.57,7.82,19.47,19.47,0,0,0,2.28,3.7C320,105,331,111.75,331,122c0,.6,0,1.19,0,1.78h0c0,1.11-.13,2.21-.27,3.29A42.94,42.94,0,0,1,288,165h-.1a3.57,3.57,0,0,0-2.83,5.76c.6.78,1.18,1.59,1.72,2.41.75,1.12,1.45,2.27,2.09,3.45a42.58,42.58,0,0,1,4.74,14.66A43.16,43.16,0,0,1,294,197c0,1.34-.06,2.66-.19,4a42.17,42.17,0,0,1-1.47,7.91,31.71,31.71,0,0,0-1,12.74h0a33.19,33.19,0,0,0,2.89,9.91,34.53,34.53,0,0,0,6.57,9.48l.17.18a42.79,42.79,0,0,1,11.61,24.05A42,42,0,0,1,313,271c0,1.35-.06,2.68-.19,4A43,43,0,0,1,270,314c-1.11,0-2.2,0-3.29-.13a43.3,43.3,0,0,1,9.62,7.67c.91,1,1.78,2,2.6,3a42.67,42.67,0,0,1,8.69,20.67h0A43.42,43.42,0,0,1,288,351c0,1.35-.06,2.68-.19,4a42.65,42.65,0,0,1-3.88,14.29,25.44,25.44,0,0,0-2.13,14.87,23.55,23.55,0,0,0,2.7,7.78,22.6,22.6,0,0,0,5.59,6.67A43.16,43.16,0,0,1,301,411.86a42.63,42.63,0,0,1,4.61,14.38A42.11,42.11,0,0,1,306,432c0,1.35-.06,2.68-.19,4A42.66,42.66,0,0,1,301,452.14a43.2,43.2,0,0,1-6.46,9.09,19.56,19.56,0,0,0-4.72,17.23,20.33,20.33,0,0,0,2.6,6.63c.24.4.49.79.76,1.17a42.7,42.7,0,0,1,7.43,19A42.22,42.22,0,0,1,301,511c0,1.35-.06,2.68-.19,4a43,43,0,0,1-23.3,34.34.72.72,0,0,0,.21,1.36,42.13,42.13,0,0,1,7.09,1.93,39.07,39.07,0,0,1,4.35,1.88,43,43,0,0,1,23.45,32.75A42,42,0,0,1,313,593c0,1.35-.06,2.68-.19,4A43,43,0,0,1,270,636c.34.24.67.49,1,.75l.9.7c.38.3.75.61,1.12.93l.63.56.47.42c.63.58,1.63,1.57,2.22,2.19l.19.21c.49.5.94,1,1.39,1.56l.3.37c.42.51.82,1,1.22,1.55l.11.15c.25.33.49.66.72,1l.15.22.06.08c.29.43.57.86.85,1.3l.05.06.14.23.05.08.65,1.09.42.74c.14.24.27.49.4.74l.39.76c.13.25.25.51.37.76.49,1,.94,2.06,1.35,3.13l.3.8.28.81c.18.54.36,1.09.52,1.64.08.27.16.55.23.82s.15.55.22.83l.21.87c0,.27.11.54.17.81a.14.14,0,0,1,0,.11c.09.39.17.78.23,1.18a.59.59,0,0,1,0,.13l0,.12.06.37s0,0,0,.08,0,.08,0,.12q.09.51.15,1c0,.19.05.37.07.56s.07.55.09.82.05.49.07.74c0,.58.09,1.16.11,1.74v.07c0,.24,0,.48,0,.72s0,.71,0,1.06c0,1.35-.06,2.68-.19,4a42.69,42.69,0,0,1-8.63,22.1A45.23,45.23,0,0,0,270,724.82V725a43,43,0,0,1-38,42.71,43.45,43.45,0,0,1-5,.29H0V0H300.26a.76.76,0,0,1,.74.77.73.73,0,0,0,.73.7.69.69,0,0,0,.2,0A43,43,0,0,1,356,43Z" transform="translate(0 0)"/><path class="cls-4" d="M232,767.71V768h-5A43.45,43.45,0,0,0,232,767.71Z" transform="translate(0 0)"/></svg>