<svg id="Capa_1" data-name="Capa 1" xmlns="http://www.w3.org/2000/svg" viewBox="0 0 1242 2000.25"><defs><style>.cls-1{fill:#f3a734;}.cls-2{opacity:0.1;}.cls-3{fill:#e2942d;}</style></defs><title>fondo-nosotros4</title><rect class="cls-1" width="1242" height="1675"/><g class="cls-2"><path d="M1242,1603.49v294.77A157.59,157.59,0,0,1,1054.36,1995a151.72,151.72,0,0,1-21-7.2,155.8,155.8,0,0,1-47.78-31.53q-3.84-3.68-7.35-7.61a156.4,156.4,0,0,1-38.45-77.61,2.64,2.64,0,0,0-5-.76c-.8,1.57-1.64,3.13-2.49,4.68a157.41,157.41,0,0,1-228.38,52.68,75.1,75.1,0,0,0-44.55-13.77,70.54,70.54,0,0,0-47.09,18.74,157.54,157.54,0,0,1-168.36,29.54c-4.2-1.79-8.34-3.72-12.38-5.89a157.76,157.76,0,0,1-42.93-33.45c-1.91-2.13-3.76-4.29-5.58-6.49a81.22,81.22,0,0,0-11.55-11.67,86.78,86.78,0,0,0-53.12-19.77,93.38,93.38,0,0,0-42.66,8.89,157.77,157.77,0,0,1-128.19,2.54h0a157.86,157.86,0,0,1-55.28-39.29,154.67,154.67,0,0,1-19.36-26.29c.15,2,.29,3.85.35,5.78s.13,4.14.13,6.26a157.34,157.34,0,0,1-1.51,21.73,157,157,0,0,1-46.82,91.76A158,158,0,0,1,0,1975.87V1603.49Z"/></g><path class="cls-3" d="M0,1603.49H1242v229.64c-.32-.42-.63-.85-.94-1.28a160.24,160.24,0,0,1-2.63,28.85,157.47,157.47,0,0,1-154.79,128.56,144.7,144.7,0,0,1-14.64-.7c-5-.44-9.85-1.14-14.64-2a156.44,156.44,0,0,1-76.18-37.82c-1.24-1.1-2.45-2.23-3.63-3.36A156.74,156.74,0,0,1,932.26,1875a134.64,134.64,0,0,1-3.5-14.91,2.64,2.64,0,0,0-5-.76,157.71,157.71,0,0,1-140.32,86q-7.41,0-14.68-.7a155.74,155.74,0,0,1-75.89-27.94,74.62,74.62,0,0,0-57.84-12.29,69.77,69.77,0,0,0-33.79,17.27,156.94,156.94,0,0,1-107,42c-4.94,0-9.82-.22-14.64-.7A157.61,157.61,0,0,1,372,1905.4c-.19-.23-.37-.48-.58-.7-20.13-24.28-51.41-34.49-81.61-29.65a94.67,94.67,0,0,0-25.14,7.8,157,157,0,0,1-67,14.89,145,145,0,0,1-14.64-.7A157.89,157.89,0,0,1,61.8,1819.81c.33,4,.47,8,.47,12A161.87,161.87,0,0,1,60.6,1855,157,157,0,0,1,14,1945.34,158.81,158.81,0,0,1,0,1957.28Z"/><path class="cls-1" d="M1242,1603.49v260.13c-.69-.55-1.38-1.12-2.07-1.69-.45-.35-.93-.74-1.36-1.11l-.14-.12c-1.9-1.61-3.77-3.2-5.56-4.93l-.78-.72c-2.27-2.16-5.89-5.82-8-8.13-.52-.53-1-1.13-1.55-1.71-.7-.78-1.38-1.54-2-2.3-1.17-1.36-2.3-2.72-3.41-4.1-.87-1.11-1.71-2.2-2.56-3.3s-1.87-2.42-2.76-3.66A157.31,157.31,0,0,1,1069,1988.56a144.7,144.7,0,0,1-14.64.7,157.58,157.58,0,0,1-109.09-43.92A157.22,157.22,0,0,1,913.42,1902a143.61,143.61,0,0,1-6.88-15.92,155.58,155.58,0,0,1-7.08-26,2.63,2.63,0,0,0-5-.76,157.49,157.49,0,0,1-125.72,85.3q-7.2.7-14.6.7a151.89,151.89,0,0,1-21.1-1.44,156.12,156.12,0,0,1-69.47-27.2c-1.4-1-2.82-1.89-4.28-2.78a74.58,74.58,0,0,0-24.28-9.51c-22.15-4.47-45.73,1.21-63.09,17.27a156.7,156.7,0,0,1-92.34,41.26c-4.84.48-9.72.7-14.66.7a151.5,151.5,0,0,1-21.08-1.44,156.37,156.37,0,0,1-52.65-16.86,158.11,158.11,0,0,1-48.49-39.94,82.56,82.56,0,0,0-24.42-20.47,86,86,0,0,0-28.49-9.88,92.79,92.79,0,0,0-54.42,7.8A155.93,155.93,0,0,1,183.09,1897a145,145,0,0,1-14.64.7,161.65,161.65,0,0,1-21-1.38h0a156.32,156.32,0,0,1-75.67-31.81c-3.89-3-7.57-6.2-11.16-9.54a158.23,158.23,0,0,1-28.08-35.2c.33,4,.47,8,.47,12a156.74,156.74,0,0,1-33,96.44v-324.8Z"/></svg>