<svg id="Capa_2" data-name="Capa 2" xmlns="http://www.w3.org/2000/svg" viewBox="0 0 1366 136.38"><defs><style>.cls-1{opacity:0.1;}.cls-2{fill:#d38929;}.cls-3{fill:#f3a734;}</style></defs><title>fondo-nosotros6</title><path class="cls-1" d="M289.85,768h3.95a46.94,46.94,0,0,1-7.2-10.65,47.16,47.16,0,0,0-29.13-32.46,47.63,47.63,0,0,0-16.54-3c-.64,0-1.28,0-1.91,0a47.12,47.12,0,0,0-11.9,2c-.63,0-1.27,0-1.91,0a46.93,46.93,0,0,1-28.12-9.3c-1.13-.85-2.23-1.75-3.29-2.69-.44-.77-.9-1.52-1.4-2.25a47.09,47.09,0,0,0-30.65-20.55h0a47.24,47.24,0,0,0-47.34,19.15A47.18,47.18,0,0,1,78.76,736a44.87,44.87,0,0,0-6.49-.45,49.05,49.05,0,0,0-7.53.59A47.22,47.22,0,0,0,27.46,768H289.85Z" transform="translate(0 -631.62)"/><path class="cls-1" d="M1366,717.83V768H377.49a47.29,47.29,0,0,0,3.55-4.44,49,49,0,0,1,45-29.38c1.08,0,2.14,0,3.19.11a49.38,49.38,0,0,0,25.2-21.46A49.07,49.07,0,0,1,511.55,675a46.8,46.8,0,0,1,8.09,2.27,49.17,49.17,0,0,1,28,26.88,47.69,47.69,0,0,1,3.34,12,49,49,0,0,0,11.88,16.92A47.94,47.94,0,0,0,567,736.5a49,49,0,0,0,13.55,7.11,67,67,0,0,0,16.17,5.82A49.35,49.35,0,0,0,631.61,744a49.42,49.42,0,0,1,12.11-9.84,48.87,48.87,0,0,1,24.49-6.54c.71,0,1.4,0,2.09,0h0a48.94,48.94,0,0,1,15.37,3.17h0c.7,0,1.4,0,2.11,0a49,49,0,0,0,30.23-10.41,17.11,17.11,0,0,0,3.23-3.3A49,49,0,0,1,770.11,698a46.67,46.67,0,0,1,8.08,2.26,49.1,49.1,0,0,1,22.48,17.12h0a48.24,48.24,0,0,0,6.73,13v0a47.54,47.54,0,0,0,4.28,5.1,49.19,49.19,0,0,0,6.18,5.45h0a48.86,48.86,0,0,0,17.43,8.22c3.78.94,7.78.94,11.82,1.44a58.59,58.59,0,0,0,15.28,0,48.93,48.93,0,0,0,30.94-11,0,0,0,0,1,0,0,49.05,49.05,0,0,1,75.69-10.68h0a49,49,0,0,1,9.49,12.24c.3.52.57,1.06.85,1.59v0a45.28,45.28,0,0,0,4.32,3.6,48.77,48.77,0,0,0,26.91,9.6h0c.77,0,1.53.06,2.31.06a48.74,48.74,0,0,0,14.32-2.13h0c.34,0,.68,0,1,.07.5,0,1,.07,1.49.12a48.93,48.93,0,0,0,8.85,1.7c1.59.16,3.22.24,4.85.24A49,49,0,0,0,1076,743.75,49.1,49.1,0,0,1,1107.83,723h0a47.52,47.52,0,0,0,5.5.31,48.85,48.85,0,0,0,8.78-.79h0a49.19,49.19,0,0,0,37.67-32.42,49.17,49.17,0,0,1,46.83-19.74,47.81,47.81,0,0,0,12,3.34,49.22,49.22,0,0,0,39.16-11.39,51,51,0,0,0,4.62-4.56,48.91,48.91,0,0,1,32-11.9,48.68,48.68,0,0,1,17.26,3.12h0a49.14,49.14,0,0,1,30.1,33.07c.14,1,.31,2,.51,3s.46,2.12.75,3.16a49.05,49.05,0,0,0,17.1,25.75A45.93,45.93,0,0,0,1366,717.83Z" transform="translate(0 -631.62)"/><path class="cls-2" d="M289.12,768H14.35a47.19,47.19,0,0,1,38.87-38.16,47.82,47.82,0,0,1,7.53-.6,46.09,46.09,0,0,1,6.48.45,47.22,47.22,0,0,0,35.65-27.61,47.19,47.19,0,0,1,66.66-10.68c1.13.85,2.23,1.75,3.29,2.7a47.56,47.56,0,0,1,9.44,11.62c.83.75,1.69,1.46,2.57,2.14a47.14,47.14,0,0,0,28.85,9.86c.64,0,1.28,0,1.91,0a46.69,46.69,0,0,1,11.9-2c.63,0,1.26,0,1.9,0a47,47,0,0,1,28.07,9.27,47.12,47.12,0,0,1,17.61,26.17,47.08,47.08,0,0,0,13.51,16.53Z" transform="translate(0 -631.62)"/><path class="cls-2" d="M1366,715.81V768H358.36A49.5,49.5,0,0,0,369,757a48.71,48.71,0,0,1,4.84-8.57A49,49,0,0,1,414,727.63c1.08,0,2.14,0,3.19.11a49.28,49.28,0,0,0,25.19-21.46A49.1,49.1,0,0,1,539,709.62a49.17,49.17,0,0,0,28,26.88c.52.2,1,.38,1.55.56a67.24,67.24,0,0,0,16.17,5.83,49.3,49.3,0,0,0,34.94-5.43,49.65,49.65,0,0,1,12.11-9.84,49,49,0,0,1,24.49-6.53c.71,0,1.4,0,2.09,0h0a48.67,48.67,0,0,1,15.38,3.18h0c.7,0,1.4,0,2.11,0A48.91,48.91,0,0,0,706.08,714a17.35,17.35,0,0,0,3.23-3.29,49.14,49.14,0,0,1,55.49-17.5,48,48,0,0,1,13.39,7.05,49.14,49.14,0,0,1,10.48,10.58h0a48.33,48.33,0,0,0,6.73,13v0a49.57,49.57,0,0,0,22.46,17.1h0a51.06,51.06,0,0,0,5.43,1.68c3.78.94,7.78.94,11.82,1.44a58.59,58.59,0,0,0,15.28,0,49,49,0,0,0,30.94-11h0a49.07,49.07,0,0,1,71.43-14.25,54,54,0,0,1,4.26,3.57h0a49.44,49.44,0,0,1,10.34,13.84s0,0,0,0a44,44,0,0,0,3.53,3,48.88,48.88,0,0,0,27.7,10.2h0c.77,0,1.53.05,2.31.05a49.07,49.07,0,0,0,14.32-2.12h0l1,.06c.5,0,1,.08,1.49.12a48.08,48.08,0,0,0,8.85,1.7,45.79,45.79,0,0,0,4.85.24A48.9,48.9,0,0,0,1064,737.2a49.05,49.05,0,0,1,31.87-20.78h0a50.1,50.1,0,0,0,14.28-.48h0a49.21,49.21,0,0,0,37.67-32.43,49.05,49.05,0,0,1,46.83-19.73,48.11,48.11,0,0,0,12,3.34,50.28,50.28,0,0,0,7.1.51,48.94,48.94,0,0,0,32-11.9,49.93,49.93,0,0,0,4.63-4.57,49,49,0,0,1,61.31-2.23h0a49.16,49.16,0,0,1,18.1,26.52,45.89,45.89,0,0,0,1.26,6.15c.31,1.15.66,2.28,1.06,3.39a49.2,49.2,0,0,0,26,28.43h0c.68.14,1.35.3,2,.48,1.2.31,2.39.66,3.54,1.07C1364.49,715.24,1365.25,715.51,1366,715.81Z" transform="translate(0 -631.62)"/><path class="cls-3" d="M289.85,768c-.42-.13-.84-.26-1.26-.41a47.25,47.25,0,0,1-27.13-23.86,47,47,0,0,0-11.72-21,45.66,45.66,0,0,0-5.12-4.6,46.94,46.94,0,0,0-28.83-9.85c-.64,0-1.28,0-1.91,0a47.12,47.12,0,0,0-11.9,2c-.63,0-1.27,0-1.91,0a46.25,46.25,0,0,1-7.67-.62,45.71,45.71,0,0,1-7.56-1.9,47,47,0,0,1-16.18-9.47,47.8,47.8,0,0,0-6.91-9.18h0c-.8-.85-1.65-1.66-2.53-2.45s-1.69-1.45-2.57-2.13a47.15,47.15,0,0,0-67.38,10.11,47.18,47.18,0,0,1-35.65,27.62,44.64,44.64,0,0,0-6.48-.45,49.05,49.05,0,0,0-7.53.59A47.18,47.18,0,0,0,0,768H289.85Z" transform="translate(0 -631.62)"/><path class="cls-3" d="M1366,716.84V768H329.23a49.07,49.07,0,0,0,25.62-18.62,48.48,48.48,0,0,1,4.85-8.58A48.94,48.94,0,0,1,399.82,720c1.08,0,2.14,0,3.2.11a49.36,49.36,0,0,0,25.19-21.46,49.1,49.1,0,0,1,78-28.4,46.59,46.59,0,0,1,5.33,4.79,49,49,0,0,1,9.89,15,48.23,48.23,0,0,1,3.34,12,49.18,49.18,0,0,0,29.39,27.39l.15,0a53.67,53.67,0,0,0,8.52,3.67,71.28,71.28,0,0,0,7.65,2.16,49.32,49.32,0,0,0,34.93-5.42A49,49,0,0,1,642,713.45c.71,0,1.39,0,2.09,0h0a49,49,0,0,1,15.37,3.18h.06c.7,0,1.4,0,2.1,0a48.92,48.92,0,0,0,30.24-10.41,17.35,17.35,0,0,0,3.23-3.29,49,49,0,0,1,75-5.07,47.16,47.16,0,0,1,4.37,5.2h0a48.18,48.18,0,0,0,6.73,13v0a49.15,49.15,0,0,0,23.89,17.61c1.31.45,2.64.84,4,1.18.85.21,1.71.37,2.57.5,3,.46,6.12.55,9.26.94a58.49,58.49,0,0,0,15.27,0,49,49,0,0,0,30.95-11s0,0,0,0a49.11,49.11,0,0,1,72.19-13.67q1.82,1.42,3.5,3h0c.62.58,1.22,1.18,1.79,1.79a48.7,48.7,0,0,1,8.54,12v0a48.86,48.86,0,0,0,31.24,13.2h0c.76,0,1.53.06,2.3.06a49.09,49.09,0,0,0,14.33-2.13h0c.34,0,.67,0,1,.06l1.5.12a49.08,49.08,0,0,0,46.15-10.31,49.16,49.16,0,0,1,31.87-20.78h0a47.47,47.47,0,0,0,5.49.31,49.89,49.89,0,0,0,8.79-.79h0a49.19,49.19,0,0,0,37.67-32.42,49.17,49.17,0,0,1,46.83-19.74,48.11,48.11,0,0,0,12,3.34,49.2,49.2,0,0,0,39.15-11.39,51.11,51.11,0,0,0,4.63-4.56,49.09,49.09,0,0,1,62.09-1.65,50.15,50.15,0,0,1,5.31,4.78,48.86,48.86,0,0,1,12,21.16A49.43,49.43,0,0,0,1321.4,685,49.19,49.19,0,0,0,1344,705.79h0c1.1.24,2.19.51,3.27.83a49,49,0,0,1,6.75,2.48h0c.56.25,1.11.51,1.65.79a47.14,47.14,0,0,1,8.06,5.08Q1364.89,715.87,1366,716.84Z" transform="translate(0 -631.62)"/></svg>