<svg id="Capa_1" data-name="Capa 1" xmlns="http://www.w3.org/2000/svg" viewBox="0 0 1285 93"><defs><style>.cls-1{fill:#f3a734;}</style></defs><title>fondoMenu</title><path class="cls-1" d="M1254.5,61.69h-70a15.26,15.26,0,0,1-15-15.5,15.26,15.26,0,0,1,15-15.5h54a15.26,15.26,0,0,0,15-15.5,15.26,15.26,0,0,0-15-15.5H133.5a15.26,15.26,0,0,0-15,15.5,15.26,15.26,0,0,0,15,15.5h48a15.26,15.26,0,0,1,15,15.5,15.26,15.26,0,0,1-15,15.5h-32a15.51,15.51,0,0,0,0,31h1105a15.51,15.51,0,0,0,0-31ZM261,31a15.26,15.26,0,0,1-15-15.5,15,15,0,1,1,30,0A15.26,15.26,0,0,1,261,31Zm869,31a15.26,15.26,0,0,1-15-15.5,15,15,0,1,1,30,0A15.26,15.26,0,0,1,1130,62Z" transform="translate(-50.5 0.31)"/><ellipse class="cls-1" cx="1270" cy="46.5" rx="15" ry="15.5"/><ellipse class="cls-1" cx="15" cy="46.5" rx="15" ry="15.5"/></svg>