<svg id="Capa_1" data-name="Capa 1" xmlns="http://www.w3.org/2000/svg" viewBox="0 0 182 84.5"><defs><style>.cls-1{fill:#d68821;}</style></defs><title>link</title><path class="cls-1" d="M193,103.83h0c0,.36,0,.72,0,1.09a22.75,22.75,0,0,1-26,22.52,22.37,22.37,0,0,1-8.08-2.79,9.44,9.44,0,0,0-4.66-1.32H154a23.64,23.64,0,0,0-2.93.19,18.72,18.72,0,0,0-10.51,5.34,23.14,23.14,0,0,1-4.71,3.5A22.76,22.76,0,0,1,109,128.93a10.66,10.66,0,0,0-4.81-2.77,22.78,22.78,0,0,0-5.45-.66,23.48,23.48,0,0,0-2.79.17,10.7,10.7,0,0,0-4.42,1.65,22.4,22.4,0,0,1-6.66,2.89,22.75,22.75,0,0,1-19.1-3.7,11.25,11.25,0,0,1-1.71-1.67,23,23,0,0,0-2.9-2.86,22.76,22.76,0,0,0-18.56-4.77h0a22.19,22.19,0,0,0-4.68,1.39h0A22.75,22.75,0,0,1,12.3,103.83,22.39,22.39,0,0,1,11,96.25v-35A10.47,10.47,0,0,1,21.46,50.75H182.54A10.47,10.47,0,0,1,193,61.21Z" transform="translate(-11 -50.75)"/></svg>