<?xml version="1.0" encoding="utf-8"?>
<!-- Generator: Adobe Illustrator 23.0.3, SVG Export Plug-In . SVG Version: 6.00 Build 0)  -->
<svg version="1.1" id="Capa_1" xmlns="http://www.w3.org/2000/svg" xmlns:xlink="http://www.w3.org/1999/xlink" x="0px" y="0px"
	 viewBox="0 0 300 300" style="enable-background:new 0 0 300 300;" xml:space="preserve">
<style type="text/css">
	.st0{fill:#3ABAD7;}
</style>
<g>
	<path id="N" class="st0" d="M236.1,206.7v-44.6c0-2.3,1.4-4.5,3.5-5.5c2.2-1,4.8-0.6,6.5,1l30.9,29.7v-31.4h12v44.8
		c0,2.4-1.4,4.5-3.5,5.5c-2.2,0.9-4.8,0.6-6.5-1l-30.9-29.7v31.1H236.1z"/>
	<path id="E" class="st0" d="M231.1,194.4v12.2h-47.1v-38.6v-12.2h44.8v11.5h-31.7l0.1,7.7h18.4c3.3,0.2,5.9,2.8,5.9,6.1
		c0,3.4-2.6,6-5.9,6.2h-18.4v7H231.1z"/>
	<path id="H" class="st0" d="M176.8,206.7h-12.2v-19.3h-26.3v19.3h-12.2v-45c0.2-3.2,2.8-5.7,6.1-5.7c3.2,0,5.9,2.5,6.1,5.7h0.1
		v13.6h26.3v-13.4c0.1-3.3,2.8-5.9,6.1-5.9s6,2.6,6.1,5.9V206.7z"/>
	<path id="A" class="st0" d="M119.6,181.5v25.3h-12.2V199H92.2c-0.2,0-0.4,0.1-0.6,0.1c-3.4,0-6.1-2.8-6.1-6.1
		c0-3.2,2.5-5.9,5.7-6.1h16.3v-5.3c0-7.2-5.9-13.1-13.1-13.1c-7.2,0-13.1,5.9-13.1,13.1c0,7.4,0,13.1,0,13.1v12.1H68.9v-25.2
		c0-14,11.4-25.4,25.4-25.4C108.3,156.1,119.6,167.5,119.6,181.5z"/>
	<path id="Linea" class="st0" d="M98,87.1l-4.6,4.6c-1.8,1.8-1.8,4.7,0,6.5l15,15c1.8,1.8,4.7,1.8,6.5,0l4.6-4.6
		c1.8-1.8,1.8-4.7,0-6.5l-15-15C102.7,85.3,99.8,85.3,98,87.1z"/>
	<path id="J" class="st0" d="M85.5,99.5c-9.2,0-18.4,3.6-25.5,10.6c-4.5,4.5-7.6,10-9.2,15.7c-0.6,1.9-0.9,3.9-1.2,5.9v48.9
		c0,0.2,0,0.5,0,0.7s0,0.5,0,0.7c-0.4,7-6.2,12.5-13.2,12.5c-7.3,0-13.2-5.8-13.2-13.1H11c0,14,11.4,25.4,25.4,25.4
		c4.8,0,9.4-1.4,13.2-3.7c6.9-4.2,11.7-11.7,12.1-20.3v-20c0,0-0.1-0.1-0.1-0.1c0,0,0.1,0,0.1,0c9.3-1.5,19.3-5.5,27.3-10.9
		c3.9-2.7,7.4-5.7,10.1-8.9c0.4-0.5,0.8-0.9,1.1-1.4c1.2-1.7,2.2-3.4,3.1-5.2c2.4-4.9,3.6-10.2,3.6-15.5L85.5,99.5z M75.2,119
		c1.7,0,3.4,0.4,4.9,1c4.3,1.9,7.3,6.2,7.3,11.2c0,6.8-5.5,12.2-12.2,12.2S63,138,63,131.2c0-2.7,0.8-5.1,2.3-7.1
		C67.5,121,71.1,119,75.2,119z"/>
	<circle id="Punto" class="st0" cx="75.2" cy="131.2" r="6.1"/>
</g>
</svg>
